<svg width="1920" height="500" viewBox="0 0 1920 500" fill="none" xmlns="http://www.w3.org/2000/svg">
<g opacity="0.5" clip-path="url(#clip0_277_1624)">
<path d="M1089 329.8L1116.9 345.9V378.1L1089 394.2L1061.1 378.1V345.9L1089 329.8Z" fill="black"/>
<path d="M1206 -2L1227.7 10.5V35.5L1206 48L1184.3 35.5V10.5L1206 -2Z" fill="black"/>
<path d="M653 256L665.1 263V277L653 284L640.9 277V263L653 256Z" fill="black"/>
<path d="M943 31L959.5 40.5V59.5L943 69L926.5 59.5V40.5L943 31Z" fill="black"/>
<path d="M710 150L736.8 165.5V196.5L710 212L683.2 196.5V165.5L710 150Z" fill="black"/>
<path d="M1618 268L1640.5 281V307L1618 320L1595.5 307V281L1618 268Z" fill="black"/>
<path d="M444 25L461.3 35V55L444 65L426.7 55V35L444 25Z" fill="black"/>
<path d="M76.9999 287L92.5999 296V314L76.9999 323L61.3999 314V296L76.9999 287Z" fill="black"/>
<path d="M269 209L276.8 213.5V222.5L269 227L261.2 222.5V213.5L269 209Z" fill="black"/>
<path d="M1514 83L1536.5 96V122L1514 135L1491.5 122V96L1514 83Z" fill="black"/>
<path d="M1413 409L1434.7 421.5V446.5L1413 459L1391.3 446.5V421.5L1413 409Z" fill="black"/>
<path d="M475 284L482.8 288.5V297.5L475 302L467.2 297.5V288.5L475 284Z" fill="black"/>
<path d="M386 412L402.5 421.5V440.5L386 450L369.5 440.5V421.5L386 412Z" fill="black"/>
<path d="M1753 399L1770.3 409V429L1753 439L1735.7 429V409L1753 399Z" fill="black"/>
<path d="M1409 147L1431.5 160V186L1409 199L1386.5 186V160L1409 147Z" fill="black"/>
<path d="M1193 451L1218.1 465.5V494.5L1193 509L1167.9 494.5V465.5L1193 451Z" fill="black"/>
<path d="M877 457L880.5 459V463L877 465L873.5 463V459L877 457Z" fill="black"/>
<path d="M930 162L945.6 171V189L930 198L914.4 189V171L930 162Z" fill="black"/>
<path d="M589 134L615.8 149.5V180.5L589 196L562.2 180.5V149.5L589 134Z" fill="black"/>
<path d="M460 134L463.5 136V140L460 142L456.5 140V136L460 134Z" fill="black"/>
<path d="M1547 481L1553.9 485V493L1547 497L1540.1 493V485L1547 481Z" fill="black"/>
<path d="M225 368L251.8 383.5V414.5L225 430L198.2 414.5V383.5L225 368Z" fill="black"/>
<path d="M562 287L581.1 298V320L562 331L542.9 320V298L562 287Z" fill="black"/>
<path d="M847 158L871.2 172V200L847 214L822.8 200V172L847 158Z" fill="black"/>
<path d="M1704 240L1709.2 243V249L1704 252L1698.8 249V243L1704 240Z" fill="black"/>
<path d="M94 -4L103.5 1.5V12.5L94 18L84.5 12.5V1.5L94 -4Z" fill="black"/>
<path d="M1106 78L1120.7 86.5V103.5L1106 112L1091.3 103.5V86.5L1106 78Z" fill="black"/>
<path d="M66.9999 455L86.8999 466.5V489.5L66.9999 501L47.0999 489.5V466.5L66.9999 455Z" fill="black"/>
<path d="M1915 50L1938.4 63.5V90.5L1915 104L1891.6 90.5V63.5L1915 50Z" fill="black"/>
<path d="M636 417L644.7 422V432L636 437L627.3 432V422L636 417Z" fill="black"/>
<path d="M145 190L163.2 200.5V221.5L145 232L126.8 221.5V200.5L145 190Z" fill="black"/>
<path d="M654 -20L679.1 -5.5V23.5L654 38L628.9 23.5V-5.5L654 -20Z" fill="black"/>
<path d="M564 483L571.8 487.5V496.5L564 501L556.2 496.5V487.5L564 483Z" fill="black"/>
<path d="M515 94L521.9 98V106L515 110L508.1 106V98L515 94Z" fill="black"/>
<path d="M1847 471L1853.9 475V483L1847 487L1840.1 483V475L1847 471Z" fill="black"/>
<path d="M1486 159L1502.5 168.5V187.5L1486 197L1469.5 187.5V168.5L1486 159Z" fill="black"/>
<path d="M1536 10L1545.5 15.5V26.5L1536 32L1526.5 26.5V15.5L1536 10Z" fill="black"/>
<path d="M1278 52L1285.8 56.5V65.5L1278 70L1270.2 65.5V56.5L1278 52Z" fill="black"/>
<path d="M1354 7L1365.3 13.5V26.5L1354 33L1342.7 26.5V13.5L1354 7Z" fill="black"/>
<path d="M1548 300L1564.5 309.5V328.5L1548 338L1531.5 328.5V309.5L1548 300Z" fill="black"/>
<path d="M1867 210L1890.4 223.5V250.5L1867 264L1843.6 250.5V223.5L1867 210Z" fill="black"/>
<path d="M267 321L275.7 326V336L267 341L258.3 336V326L267 321Z" fill="black"/>
<path d="M1244 395L1261.3 405V425L1244 435L1226.7 425V405L1244 395Z" fill="black"/>
<path d="M1681 387L1704.4 400.5V427.5L1681 441L1657.6 427.5V400.5L1681 387Z" fill="black"/>
<path d="M1265 243L1271.9 247V255L1265 259L1258.1 255V247L1265 243Z" fill="black"/>
<path d="M893 256L910.3 266V286L893 296L875.7 286V266L893 256Z" fill="black"/>
<path d="M713 471L734.7 483.5V508.5L713 521L691.3 508.5V483.5L713 471Z" fill="black"/>
<path d="M1673 69L1676.5 71V75L1673 77L1669.5 75V71L1673 69Z" fill="black"/>
<path d="M1917 405L1920.5 407V411L1917 413L1913.5 411V407L1917 405Z" fill="black"/>
<path d="M1302 314L1305.5 316V320L1302 322L1298.5 320V316L1302 314Z" fill="black"/>
<path d="M1214 86L1234.8 98V122L1214 134L1193.2 122V98L1214 86Z" fill="black"/>
<path d="M516 210L519.5 212V216L516 218L512.5 216V212L516 210Z" fill="black"/>
<path d="M717 52L730 59.5V74.5L717 82L704 74.5V59.5L717 52Z" fill="black"/>
<path d="M496 349L511.6 358V376L496 385L480.4 376V358L496 349Z" fill="black"/>
<path d="M1831 16L1835.3 18.5V23.5L1831 26L1826.7 23.5V18.5L1831 16Z" fill="black"/>
<path d="M25.9999 358L32.0999 361.5V368.5L25.9999 372L19.8999 368.5V361.5L25.9999 358Z" fill="black"/>
<path d="M1643 459L1664.7 471.5V496.5L1643 509L1621.3 496.5V471.5L1643 459Z" fill="black"/>
<path d="M218 23L240.5 36V62L218 75L195.5 62V36L218 23Z" fill="black"/>
<path d="M846 338L869.4 351.5V378.5L846 392L822.6 378.5V351.5L846 338Z" fill="black"/>
<path d="M823 63L831.7 68V78L823 83L814.3 78V68L823 63Z" fill="black"/>
<path d="M1606 55L1632 70V100L1606 115L1580 100V70L1606 55Z" fill="black"/>
<path d="M1767 283L1793 298V328L1767 343L1741 328V298L1767 283Z" fill="black"/>
<path d="M1623 144L1645.5 157V183L1623 196L1600.5 183V157L1623 144Z" fill="black"/>
<path d="M565 367L589.2 381V409L565 423L540.8 409V381L565 367Z" fill="black"/>
<path d="M48 63L70.5 76V102L48 115L25.5 102V76L48 63Z" fill="black"/>
<path d="M2.9999 442L9.0999 445.5V452.5L2.9999 456L-3.1001 452.5V445.5L2.9999 442Z" fill="black"/>
<path d="M374 122L386.1 129V143L374 150L361.9 143V129L374 122Z" fill="black"/>
<path d="M1009 179L1029.8 191V215L1009 227L988.2 215V191L1009 179Z" fill="black"/>
<path d="M776 228L789 235.5V250.5L776 258L763 250.5V235.5L776 228Z" fill="black"/>
<path d="M345 221L368.4 234.5V261.5L345 275L321.6 261.5V234.5L345 221Z" fill="black"/>
<path d="M1828 345L1837.5 350.5V361.5L1828 367L1818.5 361.5V350.5L1828 345Z" fill="black"/>
<path d="M24.9999 242L35.3999 248V260L24.9999 266L14.5999 260V248L24.9999 242Z" fill="black"/>
<path d="M1687 310L1693.1 313.5V320.5L1687 324L1680.9 320.5V313.5L1687 310Z" fill="black"/>
<path d="M787 319L792.2 322V328L787 331L781.8 328V322L787 319Z" fill="black"/>
<path d="M1054 258L1067 265.5V280.5L1054 288L1041 280.5V265.5L1054 258Z" fill="black"/>
<path d="M1270 466L1278.7 471V481L1270 486L1261.3 481V471L1270 466Z" fill="black"/>
<path d="M1905 298L1915.4 304V316L1905 322L1894.6 316V304L1905 298Z" fill="black"/>
<path d="M74 400L81.8 404.5V413.5L74 418L66.2 413.5V404.5L74 400Z" fill="black"/>
<path d="M421 340L424.5 342V346L421 348L417.5 346V342L421 340Z" fill="black"/>
<path d="M1133 277L1158.1 291.5V320.5L1133 335L1107.9 320.5V291.5L1133 277Z" fill="black"/>
<path d="M956 220L975.9 231.5V254.5L956 266L936.1 254.5V231.5L956 220Z" fill="black"/>
<path d="M493 454L512.9 465.5V488.5L493 500L473.1 488.5V465.5L493 454Z" fill="black"/>
<path d="M266 80L283.3 90V110L266 120L248.7 110V90L266 80Z" fill="black"/>
<path d="M628 75L640.1 82V96L628 103L615.9 96V82L628 75Z" fill="black"/>
<path d="M1389 486L1400.3 492.5V505.5L1389 512L1377.7 505.5V492.5L1389 486Z" fill="black"/>
<path d="M1473 465L1478.2 468V474L1473 477L1467.8 474V468L1473 465Z" fill="black"/>
<path d="M1821 118L1846.1 132.5V161.5L1821 176L1795.9 161.5V132.5L1821 118Z" fill="black"/>
<path d="M1136 209L1151.6 218V236L1136 245L1120.4 236V218L1136 209Z" fill="black"/>
<path d="M139 348L160.7 360.5V385.5L139 398L117.3 385.5V360.5L139 348Z" fill="black"/>
<path d="M786 122L790.3 124.5V129.5L786 132L781.7 129.5V124.5L786 122Z" fill="black"/>
<path d="M1616 359L1623.8 363.5V372.5L1616 377L1608.2 372.5V363.5L1616 359Z" fill="black"/>
<path d="M1083 147L1099.5 156.5V175.5L1083 185L1066.5 175.5V156.5L1083 147Z" fill="black"/>
<path d="M1323 107L1339.5 116.5V135.5L1323 145L1306.5 135.5V116.5L1323 107Z" fill="black"/>
<path d="M47 147L58.3 153.5V166.5L47 173L35.7 166.5V153.5L47 147Z" fill="black"/>
<path d="M145 90L152.8 94.5V103.5L145 108L137.2 103.5V94.5L145 90Z" fill="black"/>
<path d="M708 417L713.2 420V426L708 429L702.8 426V420L708 417Z" fill="black"/>
<path d="M1528 221L1547.1 232V254L1528 265L1508.9 254V232L1528 221Z" fill="black"/>
<path d="M318 374L328.4 380V392L318 398L307.6 392V380L318 374Z" fill="black"/>
<path d="M353 27L379 42V72L353 87L327 72V42L353 27Z" fill="black"/>
<path d="M784 450L802.2 460.5V481.5L784 492L765.8 481.5V460.5L784 450Z" fill="black"/>
<path d="M973 309L986 316.5V331.5L973 339L960 331.5V316.5L973 309Z" fill="black"/>
<path d="M645 485L653.7 490V500L645 505L636.3 500V490L645 485Z" fill="black"/>
<path d="M302 4L312.4 10V22L302 28L291.6 22V10L302 4Z" fill="black"/>
<path d="M884 82L908.2 96V124L884 138L859.8 124V96L884 82Z" fill="black"/>
<path d="M1756 179L1781.1 193.5V222.5L1756 237L1730.9 222.5V193.5L1756 179Z" fill="black"/>
<path d="M1082 1L1100.2 11.5V32.5L1082 43L1063.8 32.5V11.5L1082 1Z" fill="black"/>
<path d="M155 295L164.5 300.5V311.5L155 317L145.5 311.5V300.5L155 295Z" fill="black"/>
<path d="M135 434L157.5 447V473L135 486L112.5 473V447L135 434Z" fill="black"/>
<path d="M1391 226L1400.5 231.5V242.5L1391 248L1381.5 242.5V231.5L1391 226Z" fill="black"/>
<path d="M1547 375L1568.7 387.5V412.5L1547 425L1525.3 412.5V387.5L1547 375Z" fill="black"/>
<path d="M205 108L222.3 118V138L205 148L187.7 138V118L205 108Z" fill="black"/>
<path d="M1015 422L1041 437V467L1015 482L989 467V437L1015 422Z" fill="black"/>
<path d="M1457 5L1478.7 17.5V42.5L1457 55L1435.3 42.5V17.5L1457 5Z" fill="black"/>
<path d="M1448 73L1468.8 85V109L1448 121L1427.2 109V85L1448 73Z" fill="black"/>
<path d="M289 430L307.2 440.5V461.5L289 472L270.8 461.5V440.5L289 430Z" fill="black"/>
<path d="M1918 156L1941.4 169.5V196.5L1918 210L1894.6 196.5V169.5L1918 156Z" fill="black"/>
<path d="M950 376L965.6 385V403L950 412L934.4 403V385L950 376Z" fill="black"/>
<path d="M1356 388L1362.1 391.5V398.5L1356 402L1349.9 398.5V391.5L1356 388Z" fill="black"/>
<path d="M1429 340L1448.1 351V373L1429 384L1409.9 373V351L1429 340Z" fill="black"/>
<path d="M1742 -25L1766.2 -11V17L1742 31L1717.8 17V-11L1742 -25Z" fill="black"/>
<path d="M1915 452L1934.1 463V485L1915 496L1895.9 485V463L1915 452Z" fill="black"/>
<path d="M513 -12L538.1 2.5V31.5L513 46L487.9 31.5V2.5L513 -12Z" fill="black"/>
<path d="M1172 400L1185 407.5V422.5L1172 430L1159 422.5V407.5L1172 400Z" fill="black"/>
<path d="M1090 424L1099.5 429.5V440.5L1090 446L1080.5 440.5V429.5L1090 424Z" fill="black"/>
<path d="M1037 59L1056.9 70.5V93.5L1037 105L1017.1 93.5V70.5L1037 59Z" fill="black"/>
<path d="M1758 82L1766.7 87V97L1758 102L1749.3 97V87L1758 82Z" fill="black"/>
<path d="M1207 263L1232.1 277.5V306.5L1207 321L1181.9 306.5V277.5L1207 263Z" fill="black"/>
<path d="M350 316L357.8 320.5V329.5L350 334L342.2 329.5V320.5L350 316Z" fill="black"/>
<path d="M623 324L635.1 331V345L623 352L610.9 345V331L623 324Z" fill="black"/>
<path d="M1696 127L1716.8 139V163L1696 175L1675.2 163V139L1696 127Z" fill="black"/>
<path d="M211 217L237.8 232.5V263.5L211 279L184.2 263.5V232.5L211 217Z" fill="black"/>
<path d="M208 432L234 447V477L208 492L182 477V447L208 432Z" fill="black"/>
<path d="M1470 264L1492.5 277V303L1470 316L1447.5 303V277L1470 264Z" fill="black"/>
<path d="M27.9998 -14L42.6998 -5.5V11.5L27.9998 20L13.2998 11.5V-5.5L27.9998 -14Z" fill="black"/>
<path d="M843 2L847.3 4.5V9.5L843 12L838.7 9.5V4.5L843 2Z" fill="black"/>
<path d="M1114 468L1139.1 482.5V511.5L1114 526L1088.9 511.5V482.5L1114 468Z" fill="black"/>
<path d="M714 300L736.5 313V339L714 352L691.5 339V313L714 300Z" fill="black"/>
<path d="M1268 152L1287.9 163.5V186.5L1268 198L1248.1 186.5V163.5L1268 152Z" fill="black"/>
<path d="M1007 10L1011.3 12.5V17.5L1007 20L1002.7 17.5V12.5L1007 10Z" fill="black"/>
<path d="M1553 152L1564.3 158.5V171.5L1553 178L1541.7 171.5V158.5L1553 152Z" fill="black"/>
<path d="M1601 4L1610.5 9.5V20.5L1601 26L1591.5 20.5V9.5L1601 4Z" fill="black"/>
<path d="M768 21L771.5 23V27L768 29L764.5 27V23L768 21Z" fill="black"/>
<path d="M337 464L363.8 479.5V510.5L337 526L310.2 510.5V479.5L337 464Z" fill="black"/>
<path d="M967 95L990.4 108.5V135.5L967 149L943.6 135.5V108.5L967 95Z" fill="black"/>
<path d="M590 8L609.1 19V41L590 52L570.9 41V19L590 8Z" fill="black"/>
<path d="M595 215L611.5 224.5V243.5L595 253L578.5 243.5V224.5L595 215Z" fill="black"/>
<path d="M406 207L419.9 215V231L406 239L392.1 231V215L406 207Z" fill="black"/>
<path d="M454 416L458.3 418.5V423.5L454 426L449.7 423.5V418.5L454 416Z" fill="black"/>
<path d="M1723 491L1729.1 494.5V501.5L1723 505L1716.9 501.5V494.5L1723 491Z" fill="black"/>
<path d="M1324 193L1336.1 200V214L1324 221L1311.9 214V200L1324 193Z" fill="black"/>
<path d="M1197 167L1201.3 169.5V174.5L1197 177L1192.7 174.5V169.5L1197 167Z" fill="black"/>
<path d="M1483 392L1496 399.5V414.5L1483 422L1470 414.5V399.5L1483 392Z" fill="black"/>
<path d="M761 357L786.1 371.5V400.5L761 415L735.9 400.5V371.5L761 357Z" fill="black"/>
<path d="M941 460L949.7 465V475L941 480L932.3 475V465L941 460Z" fill="black"/>
<path d="M1336 447L1348.1 454V468L1336 475L1323.9 468V454L1336 447Z" fill="black"/>
<path d="M311 136L334.4 149.5V176.5L311 190L287.6 176.5V149.5L311 136Z" fill="black"/>
<path d="M1911 -4L1917.1 -0.5V6.5L1911 10L1904.9 6.5V-0.5L1911 -4Z" fill="black"/>
<path d="M1384 83L1391.8 87.5V96.5L1384 101L1376.2 96.5V87.5L1384 83Z" fill="black"/>
<path d="M1390 280L1416 295V325L1390 340L1364 325V295L1390 280Z" fill="black"/>
<path d="M164 -7L181.3 3V23L164 33L146.7 23V3L164 -7Z" fill="black"/>
<path d="M1852 72L1867.6 81V99L1852 108L1836.4 99V81L1852 72Z" fill="black"/>
<path d="M1201 342L1214 349.5V364.5L1201 372L1188 364.5V349.5L1201 342Z" fill="black"/>
<path d="M427 475L434.8 479.5V488.5L427 493L419.2 488.5V479.5L427 475Z" fill="black"/>
<path d="M1025 350L1044.1 361V383L1025 394L1005.9 383V361L1025 350Z" fill="black"/>
<path d="M907 313L931.2 327V355L907 369L882.8 355V327L907 313Z" fill="black"/>
</g>
<defs>
<clipPath id="clip0_277_1624">
<rect width="1920" height="500" fill="white"/>
</clipPath>
</defs>
</svg>
