<svg width="1920" height="500" viewBox="0 0 1920 500" fill="none" xmlns="http://www.w3.org/2000/svg">
<g style="mix-blend-mode:darken" opacity="0.2" clip-path="url(#clip0_699_70)">
<path d="M998.5 214L916.5 201L997.5 302L998.5 214Z" fill="#AAAAAA" stroke="#AAAAAA" stroke-linejoin="bevel"/>
<path d="M916.5 201L876.5 273L997.5 302L916.5 201Z" fill="#B4B4B4" stroke="#B4B4B4" stroke-linejoin="bevel"/>
<path d="M710.4 264L833.4 334L876.5 273L710.4 264Z" fill="#8E8E8E" stroke="#8E8E8E" stroke-linejoin="bevel"/>
<path d="M876.5 273L929.5 402L997.5 302L876.5 273Z" fill="#858585" stroke="#858585" stroke-linejoin="bevel"/>
<path d="M833.4 334L929.5 402L876.5 273L833.4 334Z" fill="#AAAAAA" stroke="#AAAAAA" stroke-linejoin="bevel"/>
<path d="M929.5 402L973.5 409L997.5 302L929.5 402Z" fill="#7C7C7C" stroke="#7C7C7C" stroke-linejoin="bevel"/>
<path d="M1148.6 213L1024.5 122L998.5 214L1148.6 213Z" fill="#BABABA" stroke="#BABABA" stroke-linejoin="bevel"/>
<path d="M998.5 214L1024.5 122L916.5 201L998.5 214Z" fill="#AFAFAF" stroke="#AFAFAF" stroke-linejoin="bevel"/>
<path d="M1072.6 412L1103.6 284L997.5 302L1072.6 412Z" fill="#B4B4B4" stroke="#B4B4B4" stroke-linejoin="bevel"/>
<path d="M997.5 302L1103.6 284L998.5 214L997.5 302Z" fill="#8E8E8E" stroke="#8E8E8E" stroke-linejoin="bevel"/>
<path d="M1024.5 122L911.5 100L916.5 201L1024.5 122Z" fill="#AFAFAF" stroke="#AFAFAF" stroke-linejoin="bevel"/>
<path d="M916.5 201L783.4 160L876.5 273L916.5 201Z" fill="#B4B4B4" stroke="#B4B4B4" stroke-linejoin="bevel"/>
<path d="M911.5 100L783.4 160L916.5 201L911.5 100Z" fill="#A1A1A1" stroke="#A1A1A1" stroke-linejoin="bevel"/>
<path d="M692.4 392L823.4 405L833.4 334L692.4 392Z" fill="#A1A1A1" stroke="#A1A1A1" stroke-linejoin="bevel"/>
<path d="M833.4 334L823.4 405L929.5 402L833.4 334Z" fill="#BFBFBF" stroke="#BFBFBF" stroke-linejoin="bevel"/>
<path d="M881.5 500H1001.5L973.5 409L881.5 500Z" fill="#B4B4B4" stroke="#B4B4B4" stroke-linejoin="bevel"/>
<path d="M1001.5 500L1072.6 412L973.5 409L1001.5 500Z" fill="#7C7C7C" stroke="#7C7C7C" stroke-linejoin="bevel"/>
<path d="M973.5 409L1072.6 412L997.5 302L973.5 409Z" fill="#BABABA" stroke="#BABABA" stroke-linejoin="bevel"/>
<path d="M1193.6 309L1148.6 213L1103.6 284L1193.6 309Z" fill="#7C7C7C" stroke="#7C7C7C" stroke-linejoin="bevel"/>
<path d="M1103.6 284L1148.6 213L998.5 214L1103.6 284Z" fill="#8E8E8E" stroke="#8E8E8E" stroke-linejoin="bevel"/>
<path d="M911.5 100L768.4 112L783.4 160L911.5 100Z" fill="#AFAFAF" stroke="#AFAFAF" stroke-linejoin="bevel"/>
<path d="M783.4 160L710.4 264L876.5 273L783.4 160Z" fill="#7C7C7C" stroke="#7C7C7C" stroke-linejoin="bevel"/>
<path d="M709.4 230L710.4 264L783.4 160L709.4 230Z" fill="#979797" stroke="#979797" stroke-linejoin="bevel"/>
<path d="M719.4 113L709.4 230L783.4 160L719.4 113Z" fill="#C4C4C4" stroke="#C4C4C4" stroke-linejoin="bevel"/>
<path d="M881.5 500L973.5 409L929.5 402L881.5 500Z" fill="#AAAAAA" stroke="#AAAAAA" stroke-linejoin="bevel"/>
<path d="M1210.6 374L1193.6 309L1072.6 412L1210.6 374Z" fill="#858585" stroke="#858585" stroke-linejoin="bevel"/>
<path d="M1072.6 412L1193.6 309L1103.6 284L1072.6 412Z" fill="#B4B4B4" stroke="#B4B4B4" stroke-linejoin="bevel"/>
<path d="M776.4 500H881.5L823.4 405L776.4 500Z" fill="#BABABA" stroke="#BABABA" stroke-linejoin="bevel"/>
<path d="M823.4 405L881.5 500L929.5 402L823.4 405Z" fill="#8E8E8E" stroke="#8E8E8E" stroke-linejoin="bevel"/>
<path d="M1110.6 0H1002.5L1024.5 122L1110.6 0Z" fill="#AAAAAA" stroke="#AAAAAA" stroke-linejoin="bevel"/>
<path d="M1024.5 122L1002.5 0L911.5 100L1024.5 122Z" fill="#AFAFAF" stroke="#AFAFAF" stroke-linejoin="bevel"/>
<path d="M911.5 100L813.4 0L768.4 112L911.5 100Z" fill="#858585" stroke="#858585" stroke-linejoin="bevel"/>
<path d="M1002.5 0H885.5L911.5 100L1002.5 0Z" fill="#7C7C7C" stroke="#7C7C7C" stroke-linejoin="bevel"/>
<path d="M1238.6 134L1143.6 73L1148.6 213L1238.6 134Z" fill="#C4C4C4" stroke="#C4C4C4" stroke-linejoin="bevel"/>
<path d="M1148.6 213L1143.6 73L1024.5 122L1148.6 213Z" fill="#7C7C7C" stroke="#7C7C7C" stroke-linejoin="bevel"/>
<path d="M703.4 0L719.4 113L768.4 112L703.4 0Z" fill="#AFAFAF" stroke="#AFAFAF" stroke-linejoin="bevel"/>
<path d="M768.4 112L719.4 113L783.4 160L768.4 112Z" fill="#AAAAAA" stroke="#AAAAAA" stroke-linejoin="bevel"/>
<path d="M1001.5 500H1078.6L1072.6 412L1001.5 500Z" fill="#AAAAAA" stroke="#AAAAAA" stroke-linejoin="bevel"/>
<path d="M1225.6 500L1210.6 374L1072.6 412L1225.6 500Z" fill="#8E8E8E" stroke="#8E8E8E" stroke-linejoin="bevel"/>
<path d="M1193.6 309L1245.6 231L1148.6 213L1193.6 309Z" fill="#AAAAAA" stroke="#AAAAAA" stroke-linejoin="bevel"/>
<path d="M591.3 329L692.4 392L710.4 264L591.3 329Z" fill="#858585" stroke="#858585" stroke-linejoin="bevel"/>
<path d="M710.4 264L692.4 392L833.4 334L710.4 264Z" fill="#979797" stroke="#979797" stroke-linejoin="bevel"/>
<path d="M591.3 329L710.4 264L571.3 236L591.3 329Z" fill="#858585" stroke="#858585" stroke-linejoin="bevel"/>
<path d="M885.5 0H813.4L911.5 100L885.5 0Z" fill="#8E8E8E" stroke="#8E8E8E" stroke-linejoin="bevel"/>
<path d="M1285.7 230L1245.6 231L1286.7 267L1285.7 230Z" fill="#858585" stroke="#858585" stroke-linejoin="bevel"/>
<path d="M692.4 392L776.4 500L823.4 405L692.4 392Z" fill="#A1A1A1" stroke="#A1A1A1" stroke-linejoin="bevel"/>
<path d="M1143.6 73L1110.6 0L1024.5 122L1143.6 73Z" fill="#7C7C7C" stroke="#7C7C7C" stroke-linejoin="bevel"/>
<path d="M1240.6 0H1110.6L1143.6 73L1240.6 0Z" fill="#7C7C7C" stroke="#7C7C7C" stroke-linejoin="bevel"/>
<path d="M1245.6 231L1238.6 134L1148.6 213L1245.6 231Z" fill="#B4B4B4" stroke="#B4B4B4" stroke-linejoin="bevel"/>
<path d="M1286.7 267L1245.6 231L1193.6 309L1286.7 267Z" fill="#BFBFBF" stroke="#BFBFBF" stroke-linejoin="bevel"/>
<path d="M1245.6 231L1285.7 230L1238.6 134L1245.6 231Z" fill="#B4B4B4" stroke="#B4B4B4" stroke-linejoin="bevel"/>
<path d="M1210.6 374L1286.7 267L1193.6 309L1210.6 374Z" fill="#8E8E8E" stroke="#8E8E8E" stroke-linejoin="bevel"/>
<path d="M692.4 392L704.4 500H776.4L692.4 392Z" fill="#BABABA" stroke="#BABABA" stroke-linejoin="bevel"/>
<path d="M813.4 0H703.4L768.4 112L813.4 0Z" fill="#BFBFBF" stroke="#BFBFBF" stroke-linejoin="bevel"/>
<path d="M719.4 113L625.3 106L709.4 230L719.4 113Z" fill="#A1A1A1" stroke="#A1A1A1" stroke-linejoin="bevel"/>
<path d="M703.4 0L625.3 106L719.4 113L703.4 0Z" fill="#BABABA" stroke="#BABABA" stroke-linejoin="bevel"/>
<path d="M692.4 392L612.3 500H704.4L692.4 392Z" fill="#979797" stroke="#979797" stroke-linejoin="bevel"/>
<path d="M571.3 236L710.4 264L709.4 230L571.3 236Z" fill="#979797" stroke="#979797" stroke-linejoin="bevel"/>
<path d="M1078.6 500H1225.6L1072.6 412L1078.6 500Z" fill="#BFBFBF" stroke="#BFBFBF" stroke-linejoin="bevel"/>
<path d="M1210.6 374L1310.7 428L1286.7 267L1210.6 374Z" fill="#AFAFAF" stroke="#AFAFAF" stroke-linejoin="bevel"/>
<path d="M625.3 106L571.3 236L709.4 230L625.3 106Z" fill="#AAAAAA" stroke="#AAAAAA" stroke-linejoin="bevel"/>
<path d="M503.3 418L586.3 392L591.3 329L503.3 418Z" fill="#BFBFBF" stroke="#BFBFBF" stroke-linejoin="bevel"/>
<path d="M591.3 329L586.3 392H692.4L591.3 329Z" fill="#B4B4B4" stroke="#B4B4B4" stroke-linejoin="bevel"/>
<path d="M1281.7 0H1240.6L1238.6 134L1281.7 0Z" fill="#AFAFAF" stroke="#AFAFAF" stroke-linejoin="bevel"/>
<path d="M1238.6 134L1240.6 0L1143.6 73L1238.6 134Z" fill="#C4C4C4" stroke="#C4C4C4" stroke-linejoin="bevel"/>
<path d="M703.4 0H645.3L625.3 106L703.4 0Z" fill="#979797" stroke="#979797" stroke-linejoin="bevel"/>
<path d="M625.3 106L524.3 115L571.3 236L625.3 106Z" fill="#AFAFAF" stroke="#AFAFAF" stroke-linejoin="bevel"/>
<path d="M1225.6 500L1310.7 428L1210.6 374L1225.6 500Z" fill="#8E8E8E" stroke="#8E8E8E" stroke-linejoin="bevel"/>
<path d="M1405.7 165L1345.7 100L1285.7 230L1405.7 165Z" fill="#B4B4B4" stroke="#B4B4B4" stroke-linejoin="bevel"/>
<path d="M571.3 236L542.3 287L591.3 329L571.3 236Z" fill="#7C7C7C" stroke="#7C7C7C" stroke-linejoin="bevel"/>
<path d="M487.3 180L542.3 287L571.3 236L487.3 180Z" fill="#AFAFAF" stroke="#AFAFAF" stroke-linejoin="bevel"/>
<path d="M586.3 392L612.3 500L692.4 392H586.3Z" fill="#8E8E8E" stroke="#8E8E8E" stroke-linejoin="bevel"/>
<path d="M503.3 418L612.3 500L586.3 392L503.3 418Z" fill="#7C7C7C" stroke="#7C7C7C" stroke-linejoin="bevel"/>
<path d="M1345.7 100L1281.7 0L1238.6 134L1345.7 100Z" fill="#AAAAAA" stroke="#AAAAAA" stroke-linejoin="bevel"/>
<path d="M1345.7 100L1238.6 134L1285.7 230L1345.7 100Z" fill="#BFBFBF" stroke="#BFBFBF" stroke-linejoin="bevel"/>
<path d="M1405.7 165L1285.7 230L1286.7 267L1405.7 165Z" fill="#C4C4C4" stroke="#C4C4C4" stroke-linejoin="bevel"/>
<path d="M1225.6 500H1324.7L1310.7 428L1225.6 500Z" fill="#AFAFAF" stroke="#AFAFAF" stroke-linejoin="bevel"/>
<path d="M1310.7 428L1410.7 335L1286.7 267L1310.7 428Z" fill="#AFAFAF" stroke="#AFAFAF" stroke-linejoin="bevel"/>
<path d="M645.3 0L524.3 115L625.3 106L645.3 0Z" fill="#7C7C7C" stroke="#7C7C7C" stroke-linejoin="bevel"/>
<path d="M1324.7 500L1386.7 415L1310.7 428L1324.7 500Z" fill="#7C7C7C" stroke="#7C7C7C" stroke-linejoin="bevel"/>
<path d="M1410.7 335L1405.7 165L1286.7 267L1410.7 335Z" fill="#C4C4C4" stroke="#C4C4C4" stroke-linejoin="bevel"/>
<path d="M1345.7 100L1390.7 0H1281.7L1345.7 100Z" fill="#AAAAAA" stroke="#AAAAAA" stroke-linejoin="bevel"/>
<path d="M1386.7 415L1410.7 335L1310.7 428L1386.7 415Z" fill="#8E8E8E" stroke="#8E8E8E" stroke-linejoin="bevel"/>
<path d="M524.3 115L487.3 180L571.3 236L524.3 115Z" fill="#BABABA" stroke="#BABABA" stroke-linejoin="bevel"/>
<path d="M542.3 287L503.3 418L591.3 329L542.3 287Z" fill="#AFAFAF" stroke="#AFAFAF" stroke-linejoin="bevel"/>
<path d="M394.2 371L503.3 418L542.3 287L394.2 371Z" fill="#979797" stroke="#979797" stroke-linejoin="bevel"/>
<path d="M1485.8 161L1406.7 98L1405.7 165L1485.8 161Z" fill="#979797" stroke="#979797" stroke-linejoin="bevel"/>
<path d="M1405.7 165L1406.7 98L1345.7 100L1405.7 165Z" fill="#7C7C7C" stroke="#7C7C7C" stroke-linejoin="bevel"/>
<path d="M1406.7 98L1390.7 0L1345.7 100L1406.7 98Z" fill="#7C7C7C" stroke="#7C7C7C" stroke-linejoin="bevel"/>
<path d="M398.2 500H496.3L503.3 418L398.2 500Z" fill="#B4B4B4" stroke="#B4B4B4" stroke-linejoin="bevel"/>
<path d="M503.3 418L496.3 500H612.3L503.3 418Z" fill="#C4C4C4" stroke="#C4C4C4" stroke-linejoin="bevel"/>
<path d="M524.3 115L411.2 90L487.3 180L524.3 115Z" fill="#979797" stroke="#979797" stroke-linejoin="bevel"/>
<path d="M645.3 0H490.3L524.3 115L645.3 0Z" fill="#B4B4B4" stroke="#B4B4B4" stroke-linejoin="bevel"/>
<path d="M1324.7 500H1418.7L1386.7 415L1324.7 500Z" fill="#AAAAAA" stroke="#AAAAAA" stroke-linejoin="bevel"/>
<path d="M1526.8 391L1507.8 317L1410.7 335L1526.8 391Z" fill="#AAAAAA" stroke="#AAAAAA" stroke-linejoin="bevel"/>
<path d="M1507.8 317L1485.8 161L1405.7 165L1507.8 317Z" fill="#A1A1A1" stroke="#A1A1A1" stroke-linejoin="bevel"/>
<path d="M1507.8 317L1405.7 165L1410.7 335L1507.8 317Z" fill="#7C7C7C" stroke="#7C7C7C" stroke-linejoin="bevel"/>
<path d="M1406.7 98L1511.8 0H1390.7L1406.7 98Z" fill="#8E8E8E" stroke="#8E8E8E" stroke-linejoin="bevel"/>
<path d="M487.3 180L397.2 280L542.3 287L487.3 180Z" fill="#979797" stroke="#979797" stroke-linejoin="bevel"/>
<path d="M380.2 218L397.2 280L487.3 180L380.2 218Z" fill="#858585" stroke="#858585" stroke-linejoin="bevel"/>
<path d="M1526.8 391L1410.7 335L1386.7 415L1526.8 391Z" fill="#8E8E8E" stroke="#8E8E8E" stroke-linejoin="bevel"/>
<path d="M490.3 0L411.2 90L524.3 115L490.3 0Z" fill="#8E8E8E" stroke="#8E8E8E" stroke-linejoin="bevel"/>
<path d="M397.2 280L394.2 371L542.3 287L397.2 280Z" fill="#7C7C7C" stroke="#7C7C7C" stroke-linejoin="bevel"/>
<path d="M411.2 90L380.2 218L487.3 180L411.2 90Z" fill="#8E8E8E" stroke="#8E8E8E" stroke-linejoin="bevel"/>
<path d="M397.2 280L336.2 361L394.2 371L397.2 280Z" fill="#C4C4C4" stroke="#C4C4C4" stroke-linejoin="bevel"/>
<path d="M1600.8 124L1516.8 127L1485.8 161L1600.8 124Z" fill="#C4C4C4" stroke="#C4C4C4" stroke-linejoin="bevel"/>
<path d="M1485.8 161L1516.8 127L1406.7 98L1485.8 161Z" fill="#858585" stroke="#858585" stroke-linejoin="bevel"/>
<path d="M1418.7 500L1526.8 391L1386.7 415L1418.7 500Z" fill="#C4C4C4" stroke="#C4C4C4" stroke-linejoin="bevel"/>
<path d="M1640.8 232L1600.8 124L1485.8 161L1640.8 232Z" fill="#AAAAAA" stroke="#AAAAAA" stroke-linejoin="bevel"/>
<path d="M490.3 0H407.2L411.2 90L490.3 0Z" fill="#979797" stroke="#979797" stroke-linejoin="bevel"/>
<path d="M411.2 90L310.2 103L380.2 218L411.2 90Z" fill="#AAAAAA" stroke="#AAAAAA" stroke-linejoin="bevel"/>
<path d="M342.2 500H398.2L394.2 371L342.2 500Z" fill="#858585" stroke="#858585" stroke-linejoin="bevel"/>
<path d="M394.2 371L398.2 500L503.3 418L394.2 371Z" fill="#7C7C7C" stroke="#7C7C7C" stroke-linejoin="bevel"/>
<path d="M1516.8 127L1511.8 0L1406.7 98L1516.8 127Z" fill="#8E8E8E" stroke="#8E8E8E" stroke-linejoin="bevel"/>
<path d="M292.2 303L336.2 361L397.2 280L292.2 303Z" fill="#858585" stroke="#858585" stroke-linejoin="bevel"/>
<path d="M292.2 303L397.2 280L380.2 218L292.2 303Z" fill="#AFAFAF" stroke="#AFAFAF" stroke-linejoin="bevel"/>
<path d="M1418.7 500H1531.8L1526.8 391L1418.7 500Z" fill="#979797" stroke="#979797" stroke-linejoin="bevel"/>
<path d="M1640.8 232L1485.8 161L1507.8 317L1640.8 232Z" fill="#8E8E8E" stroke="#8E8E8E" stroke-linejoin="bevel"/>
<path d="M1516.8 127L1600.8 124L1511.8 0L1516.8 127Z" fill="#AAAAAA" stroke="#AAAAAA" stroke-linejoin="bevel"/>
<path d="M336.2 361L342.2 500L394.2 371L336.2 361Z" fill="#A1A1A1" stroke="#A1A1A1" stroke-linejoin="bevel"/>
<path d="M338.2 0L310.2 103L411.2 90L338.2 0Z" fill="#BABABA" stroke="#BABABA" stroke-linejoin="bevel"/>
<path d="M336.2 361L239.1 385L342.2 500L336.2 361Z" fill="#7C7C7C" stroke="#7C7C7C" stroke-linejoin="bevel"/>
<path d="M286.2 177L292.2 303L380.2 218L286.2 177Z" fill="#A1A1A1" stroke="#A1A1A1" stroke-linejoin="bevel"/>
<path d="M407.2 0H338.2L411.2 90L407.2 0Z" fill="#AAAAAA" stroke="#AAAAAA" stroke-linejoin="bevel"/>
<path d="M1640.8 316L1507.8 317L1526.8 391L1640.8 316Z" fill="#C4C4C4" stroke="#C4C4C4" stroke-linejoin="bevel"/>
<path d="M218.1 200L286.2 177L232.1 71L218.1 200Z" fill="#AAAAAA" stroke="#AAAAAA" stroke-linejoin="bevel"/>
<path d="M310.2 103L286.2 177L380.2 218L310.2 103Z" fill="#AFAFAF" stroke="#AFAFAF" stroke-linejoin="bevel"/>
<path d="M1531.8 500L1599.8 415L1526.8 391L1531.8 500Z" fill="#BFBFBF" stroke="#BFBFBF" stroke-linejoin="bevel"/>
<path d="M1640.8 316V232L1507.8 317L1640.8 316Z" fill="#AAAAAA" stroke="#AAAAAA" stroke-linejoin="bevel"/>
<path d="M1599.8 415L1640.8 316L1526.8 391L1599.8 415Z" fill="#BFBFBF" stroke="#BFBFBF" stroke-linejoin="bevel"/>
<path d="M218.1 200L236.1 321L292.2 303L218.1 200Z" fill="#AFAFAF" stroke="#AFAFAF" stroke-linejoin="bevel"/>
<path d="M292.2 303L239.1 385L336.2 361L292.2 303Z" fill="#AFAFAF" stroke="#AFAFAF" stroke-linejoin="bevel"/>
<path d="M218.1 200L292.2 303L286.2 177L218.1 200Z" fill="#7C7C7C" stroke="#7C7C7C" stroke-linejoin="bevel"/>
<path d="M236.1 321L239.1 385L292.2 303L236.1 321Z" fill="#AFAFAF" stroke="#AFAFAF" stroke-linejoin="bevel"/>
<path d="M1531.8 500H1630.8L1599.8 415L1531.8 500Z" fill="#979797" stroke="#979797" stroke-linejoin="bevel"/>
<path d="M1599.8 415L1680.9 333L1640.8 316L1599.8 415Z" fill="#B4B4B4" stroke="#B4B4B4" stroke-linejoin="bevel"/>
<path d="M232.1 71L286.2 177L310.2 103L232.1 71Z" fill="#AFAFAF" stroke="#AFAFAF" stroke-linejoin="bevel"/>
<path d="M101.1 413L191.1 500L239.1 385L101.1 413Z" fill="#8E8E8E" stroke="#8E8E8E" stroke-linejoin="bevel"/>
<path d="M1688.9 0H1636.8L1720.9 60L1688.9 0Z" fill="#B4B4B4" stroke="#B4B4B4" stroke-linejoin="bevel"/>
<path d="M1600.8 124L1636.8 0H1511.8L1600.8 124Z" fill="#AFAFAF" stroke="#AFAFAF" stroke-linejoin="bevel"/>
<path d="M1640.8 316L1680.9 333L1640.8 232V316Z" fill="#BFBFBF" stroke="#BFBFBF" stroke-linejoin="bevel"/>
<path d="M1640.8 232L1690.9 198L1600.8 124L1640.8 232Z" fill="#7C7C7C" stroke="#7C7C7C" stroke-linejoin="bevel"/>
<path d="M1687.9 411L1680.9 333L1599.8 415L1687.9 411Z" fill="#AFAFAF" stroke="#AFAFAF" stroke-linejoin="bevel"/>
<path d="M338.2 0L232.1 71L310.2 103L338.2 0Z" fill="#8E8E8E" stroke="#8E8E8E" stroke-linejoin="bevel"/>
<path d="M1680.9 333L1690.9 198L1640.8 232L1680.9 333Z" fill="#AAAAAA" stroke="#AAAAAA" stroke-linejoin="bevel"/>
<path d="M1630.8 500L1687.9 411L1599.8 415L1630.8 500Z" fill="#A1A1A1" stroke="#A1A1A1" stroke-linejoin="bevel"/>
<path d="M1680.9 333L1785.9 320L1690.9 198L1680.9 333Z" fill="#8E8E8E" stroke="#8E8E8E" stroke-linejoin="bevel"/>
<path d="M1720.9 60L1636.8 0L1600.8 124L1720.9 60Z" fill="#C4C4C4" stroke="#C4C4C4" stroke-linejoin="bevel"/>
<path d="M1690.9 198L1720.9 60L1600.8 124L1690.9 198Z" fill="#C4C4C4" stroke="#C4C4C4" stroke-linejoin="bevel"/>
<path d="M1783.9 74L1720.9 60L1690.9 198L1783.9 74Z" fill="#858585" stroke="#858585" stroke-linejoin="bevel"/>
<path d="M104.1 312L239.1 385L236.1 321L104.1 312Z" fill="#B4B4B4" stroke="#B4B4B4" stroke-linejoin="bevel"/>
<path d="M239.1 385L191.1 500H342.2L239.1 385Z" fill="#979797" stroke="#979797" stroke-linejoin="bevel"/>
<path d="M1630.8 500H1725.9L1687.9 411L1630.8 500Z" fill="#AFAFAF" stroke="#AFAFAF" stroke-linejoin="bevel"/>
<path d="M1687.9 411L1785.9 320L1680.9 333L1687.9 411Z" fill="#C4C4C4" stroke="#C4C4C4" stroke-linejoin="bevel"/>
<path d="M89.1 116L90.1 230L218.1 200L89.1 116Z" fill="#858585" stroke="#858585" stroke-linejoin="bevel"/>
<path d="M218.1 200L104.1 312L236.1 321L218.1 200Z" fill="#979797" stroke="#979797" stroke-linejoin="bevel"/>
<path d="M338.2 0H176.1L232.1 71L338.2 0Z" fill="#AAAAAA" stroke="#AAAAAA" stroke-linejoin="bevel"/>
<path d="M1847.9 396L1785.9 320L1687.9 411L1847.9 396Z" fill="#858585" stroke="#858585" stroke-linejoin="bevel"/>
<path d="M1785.9 320L1794.9 221L1690.9 198L1785.9 320Z" fill="#979797" stroke="#979797" stroke-linejoin="bevel"/>
<path d="M90.1 230L104.1 312L218.1 200L90.1 230Z" fill="#C4C4C4" stroke="#C4C4C4" stroke-linejoin="bevel"/>
<path d="M1794.9 221L1783.9 74L1690.9 198L1794.9 221Z" fill="#858585" stroke="#858585" stroke-linejoin="bevel"/>
<path d="M1720.9 60L1824.9 0H1688.9L1720.9 60Z" fill="#A1A1A1" stroke="#A1A1A1" stroke-linejoin="bevel"/>
<path d="M89.1 116L218.1 200L232.1 71L89.1 116Z" fill="#858585" stroke="#858585" stroke-linejoin="bevel"/>
<path d="M0 360L101.1 413L104.1 312L0 360Z" fill="#B4B4B4" stroke="#B4B4B4" stroke-linejoin="bevel"/>
<path d="M104.1 312L101.1 413L239.1 385L104.1 312Z" fill="#BFBFBF" stroke="#BFBFBF" stroke-linejoin="bevel"/>
<path d="M176.1 0L89.1 116L232.1 71L176.1 0Z" fill="#979797" stroke="#979797" stroke-linejoin="bevel"/>
<path d="M176.1 0H113.1L89.1 116L176.1 0Z" fill="#8E8E8E" stroke="#8E8E8E" stroke-linejoin="bevel"/>
<path d="M0 500H104.1L101.1 413L0 500Z" fill="#AFAFAF" stroke="#AFAFAF" stroke-linejoin="bevel"/>
<path d="M101.1 413L104.1 500H191.1L101.1 413Z" fill="#A1A1A1" stroke="#A1A1A1" stroke-linejoin="bevel"/>
<path d="M1725.9 500L1847.9 396L1687.9 411L1725.9 500Z" fill="#C4C4C4" stroke="#C4C4C4" stroke-linejoin="bevel"/>
<path d="M1785.9 320L1920 312L1794.9 221L1785.9 320Z" fill="#858585" stroke="#858585" stroke-linejoin="bevel"/>
<path d="M1920 73L1824.9 0L1783.9 74L1920 73Z" fill="#B4B4B4" stroke="#B4B4B4" stroke-linejoin="bevel"/>
<path d="M1822.9 500L1847.9 396L1725.9 500H1822.9Z" fill="#8E8E8E" stroke="#8E8E8E" stroke-linejoin="bevel"/>
<path d="M1920 165L1783.9 74L1794.9 221L1920 165Z" fill="#AAAAAA" stroke="#AAAAAA" stroke-linejoin="bevel"/>
<path d="M1783.9 74L1824.9 0L1720.9 60L1783.9 74Z" fill="#BFBFBF" stroke="#BFBFBF" stroke-linejoin="bevel"/>
<path d="M90.1 230L0 324L104.1 312L90.1 230Z" fill="#B4B4B4" stroke="#B4B4B4" stroke-linejoin="bevel"/>
<path d="M0 182V324L90.1 230L0 182Z" fill="#C4C4C4" stroke="#C4C4C4" stroke-linejoin="bevel"/>
<path d="M0 182L90.1 230L89.1 116L0 182Z" fill="#8E8E8E" stroke="#8E8E8E" stroke-linejoin="bevel"/>
<path d="M0 68V182L89.1 116L0 68Z" fill="#BFBFBF" stroke="#BFBFBF" stroke-linejoin="bevel"/>
<path d="M0 324V360L104.1 312L0 324Z" fill="#AAAAAA" stroke="#AAAAAA" stroke-linejoin="bevel"/>
<path d="M113.1 0L0 68L89.1 116L113.1 0Z" fill="#858585" stroke="#858585" stroke-linejoin="bevel"/>
<path d="M1920 435V312L1847.9 396L1920 435Z" fill="#A1A1A1" stroke="#A1A1A1" stroke-linejoin="bevel"/>
<path d="M1847.9 396L1920 312L1785.9 320L1847.9 396Z" fill="#C4C4C4" stroke="#C4C4C4" stroke-linejoin="bevel"/>
<path d="M1920 312V165L1794.9 221L1920 312Z" fill="#979797" stroke="#979797" stroke-linejoin="bevel"/>
<path d="M0 360V500L101.1 413L0 360Z" fill="#AAAAAA" stroke="#AAAAAA" stroke-linejoin="bevel"/>
<path d="M113.1 0H0V68L113.1 0Z" fill="#979797" stroke="#979797" stroke-linejoin="bevel"/>
<path d="M1822.9 500L1920 435L1847.9 396L1822.9 500Z" fill="#C4C4C4" stroke="#C4C4C4" stroke-linejoin="bevel"/>
<path d="M1920 165V73L1783.9 74L1920 165Z" fill="#AFAFAF" stroke="#AFAFAF" stroke-linejoin="bevel"/>
<path d="M1822.9 500H1920V435L1822.9 500Z" fill="#7C7C7C" stroke="#7C7C7C" stroke-linejoin="bevel"/>
<path d="M1920 73V0H1824.9L1920 73Z" fill="#8E8E8E" stroke="#8E8E8E" stroke-linejoin="bevel"/>
</g>
<defs>
<clipPath id="clip0_699_70">
<rect width="1920" height="500" fill="white"/>
</clipPath>
</defs>
</svg>
