<?xml version="1.0" encoding="UTF-8"?>
<!DOCTYPE svg PUBLIC "-//W3C//DTD SVG 1.1//EN" "http://www.w3.org/Graphics/SVG/1.1/DTD/svg11.dtd">
<!-- Creator: CorelDRAW -->
<svg xmlns="http://www.w3.org/2000/svg" xml:space="preserve" width="210mm" height="297mm" version="1.1" style="shape-rendering:geometricPrecision; text-rendering:geometricPrecision; image-rendering:optimizeQuality; fill-rule:evenodd; clip-rule:evenodd"
viewBox="0 0 21000 29700"
 xmlns:xlink="http://www.w3.org/1999/xlink"
 xmlns:xodm="http://www.corel.com/coreldraw/odm/2003"
 xmlns:mapsvg="http://mapsvg.com"
 xmlns:dc="http://purl.org/dc/elements/1.1/"
 xmlns:rdf="http://www.w3.org/1999/02/22-rdf-syntax-ns#"
 xmlns:svg="http://www.w3.org/2000/svg"
 mapsvg:geoViewBox="-74.008595 5.275696 -34.789914 -33.743888">
 <defs>
  <style type="text/css">
   <![CDATA[
    .str0 {stroke:white;stroke-width:7.62;stroke-miterlimit:22.9256}
    .fil0 {fill:#141F58;fill-rule:nonzero}
    .fil1 {fill:#3355D0;fill-rule:nonzero}
   ]]>
  </style>
 </defs>
 <g id="Camada_x0020_1">
  <metadata id="CorelCorpID_0Corel-Layer"/>
  <polygon id="BR-AC" class="fil0 str0" points="-34835.7,12799 -34890.73,12797.94 -34876.44,12750.05 -34882,12728.09 -34888.61,12715.13 -34921.68,12696.61 -34925.38,12684.7 -34918.24,12654.27 -34938.61,12602.68 -34967.45,12585.75 -35115.62,12552.68 -35309.82,12547.65 -35302.68,12532.83 -35236.8,12473.03 -35213.25,12440.49 -35205.58,12408.74 -35211.4,12376.2 -35229.39,12352.12 -35251.35,12340.48 -35295.8,12262.43 -35316.17,12250.79 -35339.98,12245.76 -35369.88,12215.86 -35394.22,12152.89 -35447.14,12112.41 -35473.07,12016.63 -35496.09,11973.24 -35545.83,11944.66 -35547.95,11913.7 -35526.52,11916.35 -35515.41,11902.59 -35513.56,11884.86 -35518.85,11873.75 -35574.94,11849.14 -35584.47,11831.68 -35641.88,11781.67 -35640.82,11771.88 -35624.42,11770.56 -35611.19,11735.63 -35611.45,11700.97 -35531.81,11690.65 -35518.58,11680.33 -35524.4,11644.61 -35555.36,11603.07 -35555.36,11603.07 -35080.43,11800.98 -34454.43,11950.73 -34133.23,12033.81 -33433.67,12408.72 -32679.34,12729.66 -32679.34,12729.66 -32600.76,12763 -32600.76,12763 -32608.7,12775.7 -32650.24,12793.16 -32705.54,12835.23 -32781.21,12909.05 -32824.87,12931.8 -32842.33,12927.04 -32882.81,12931.8 -32884.13,12946.62 -32934.93,12981.02 -32989.96,13007.21 -33028.06,13055.63 -33039.7,13086.85 -33055.84,13094.26 -33086.8,13074.42 -33106.91,13070.98 -33169.62,13072.3 -33187.61,13079.18 -33204.28,13091.09 -33213.81,13113.84 -33278.37,13205.92 -33378.12,13238.99 -33400.35,13257.25 -33451.68,13270.74 -33478.93,13271.53 -33476.81,13215.7 -33512.79,13220.99 -33606.72,13200.62 -33745.36,13188.18 -33880.03,13198.23 -33897.49,13182.88 -33957.55,13178.38 -34051.74,13226.8 -34123.97,13243.2 -34168.42,13225.47 -34205.46,13187.37 -34248.85,13218.06 -34247.79,12753.72 -34246.47,12724.62 -34234.03,12705.83 -34232.18,12643.65 -34239.06,12620.37 -34213.4,12589.15 -34200.7,12558.99 -34231.39,12564.28 -34309.97,12632.81 -34352.3,12659.53 -34406.8,12722.5 -34458.39,12740.23 -34475.59,12768.81 -34523.48,12795 " title="Acre"/>
  <polygon id="BR-AL" class="fil1 str0" points="-20774.68,12601.36 -20779.97,12582.05 -20817.54,12561.41 -20829.45,12563.79 -20856.44,12556.12 -20870.73,12519.08 -20870.73,12519.08 -20835.8,12490.77 -20818.87,12461.93 -20761.46,12441.82 -20698.49,12354.77 -20696.11,12336.51 -20674.41,12320.63 -20647.95,12352.91 -20603.76,12360.85 -20575.18,12357.67 -20507.71,12411.12 -20457.44,12467.21 -20410.34,12494.99 -20359.8,12507.69 -20293.65,12490.49 -20210.57,12498.16 -20179.61,12495.25 -20130.4,12467.2 -20099.71,12468.52 -20051.82,12439.15 -19994.14,12378.56 -19990.96,12366.65 -19949.95,12333.84 -19897.03,12327.49 -19837.76,12349.98 -19770.03,12315.85 -19731.14,12310.82 -19680.34,12332.25 -19603.61,12339.39 -19596.47,12344.95 -19596.47,12344.95 -19670.02,12476.18 -19790.41,12611.91 -19885.13,12706.63 -19965.56,12827.81 -20053.67,12904.01 -20080.13,12957.72 -20115.06,13005.08 -20115.06,13005.08 -20130.94,12970.42 -20225.93,12911.42 -20238.1,12910.63 -20282.02,12889.73 -20328.59,12851.37 -20362.99,12786.55 -20506.39,12705.32 -20603.76,12680.18 " title="Alagoas"/>
  <polygon id="BR-AM" class="fil0 str0" points="-31254.56,7759.22 -31235.51,7779.86 -31215.67,7788.86 -31199.53,7789.12 -31169.63,7778.01 -31152.96,7780.92 -31151.37,7806.32 -31119.36,7837.28 -31093.7,7847.07 -31070.42,7841.51 -31034.44,7844.42 -30982.85,7869.56 -30969.89,7887.02 -30993.97,7974.86 -31012.76,8014.55 -30940.53,8113.5 -30896.61,8239.44 -30891.58,8299.24 -30868.56,8328.87 -30867.24,8340.78 -30910.1,8379.41 -30900.57,8421.48 -30883.11,8463.28 -30903.48,8543.71 -30918.56,8569.11 -30910.89,8700.87 -30887.61,8758.28 -30855.33,8780.51 -30839.98,8804.32 -30810.08,8918.88 -30811.67,8934.23 -30841.83,8969.16 -30890.51,8960.43 -30894.21,8990.59 -30761.65,9107.54 -30747.89,9108.6 -30696.03,9143.26 -30656.87,9186.92 -30629.35,9240.9 -30615.33,9242.75 -30579.88,9231.64 -30517.44,9259.16 -30529.08,9203.33 -30509.24,9142.74 -30502.63,9096.97 -30512.42,9049.34 -30490.72,8970.76 -30463.73,8937.42 -30429.86,8919.16 -30374.56,8900.37 -30360.01,8876.82 -30317.68,8875.23 -30242.8,8899.84 -30193.32,8953.82 -30168.98,9020.23 -30120.83,9026.32 -30087.76,9014.15 -30050.45,8976.84 -29996.74,8962.29 -29985.63,8951.97 -29985.1,8937.95 -30015.26,8900.64 -30021.35,8881.33 -30018.44,8863.87 -29988.01,8794.02 -29986.16,8764.12 -29942.24,8683.95 -29880.59,8597.7 -29881.38,8579.71 -29392.17,8581.56 -29392.17,8581.56 -29381.59,8710.15 -29392.97,8748.51 -29388.21,8808.57 -29381.86,8826.56 -29336.88,8849.05 -29332.12,8859.9 -29341.38,8878.16 -29342.7,8933.99 -29294.28,8986.64 -29284.75,8991.67 -29266.23,8986.91 -29217.55,9019.45 -29203,9067.87 -29201.94,9092.48 -29194,9104.39 -29071.23,9204.14 -28950.05,9271.34 -28933.38,9295.15 -28897.66,9323.99 -28847.92,9341.72 -28785.21,9376.38 -28725.41,9393.58 -28689.43,9397.55 -28654.5,9419.25 -28652.38,9435.39 -28618.78,9470.84 -28547.34,9508.94 -28518.24,9566.35 -28468.76,9587.25 -28446.27,9571.11 -28409.76,9561.85 -28404.73,9574.55 -28408.17,9595.19 -28360.28,9639.38 -29151.38,11339.06 -29172.02,11373.72 -29210.38,11403.62 -29225.73,11429.28 -29226.52,11459.18 -29204.82,11520.83 -29194.77,11535.91 -29166.46,11551.26 -29124.66,11592.54 -29107.73,11625.88 -29103.76,11677.74 -29088.68,11692.82 -29088.68,11692.82 -29119.9,11724.57 -29125.19,11740.71 -29126.78,11760.82 -29117.78,11783.05 -29124.92,11809.77 -29156.67,11857.92 -29179.42,11874.85 -29190.53,11897.34 -29187.88,11919.83 -29170.42,11956.08 -29158.25,12007.41 -29194.76,12119.06 -29225.98,12257.17 -29257.99,12276.48 -30524.02,12284.95 -30524.02,12284.95 -30522.96,12266.43 -30532.49,12256.38 -30569.27,12248.97 -30620.07,12277.55 -30634.36,12323.59 -30652.35,12328.62 -30738.08,12289.46 -30756.07,12213.26 -30772.47,12207.97 -30798.4,12211.41 -30810.57,12205.85 -30843.64,12119.33 -30910.84,12093.4 -30946.03,12059.8 -30967.2,12009.26 -30979.11,11996.3 -31036,11966.4 -31321.49,11967.99 -31358,12035.72 -31403.51,12048.95 -31401.13,12079.91 -31408.01,12085.73 -31473.63,12099.75 -31505.12,12141.82 -31506.44,12159.55 -31482.63,12178.07 -31478.13,12189.98 -31487.66,12216.97 -31509.09,12247.4 -31563.59,12279.41 -31566.5,12327.3 -31560.15,12365.93 -31662.54,12353.76 -31718.9,12363.81 -31750.65,12392.12 -31798.01,12389.47 -31820.24,12374.92 -31832.41,12374.39 -31878.71,12407.73 -31892.73,12429.96 -31885.85,12476.26 -31953.05,12559.87 -31971.04,12561.99 -31989.03,12547.97 -32005.96,12488.17 -32016.01,12485.79 -32064.69,12512.78 -32099.09,12544.79 -32135.34,12555.11 -32155.71,12551.67 -32184.29,12564.9 -32195.14,12578.92 -32198.58,12597.97 -32230.86,12618.87 -32240.65,12619.4 -32301.77,12557.75 -32320.82,12547.96 -32396.76,12556.69 -32501.54,12549.81 -32497.31,12583.94 -32501.28,12598.76 -32542.29,12646.65 -32593.09,12662 -32679.34,12729.73 -32679.34,12729.73 -33433.67,12408.79 -34133.23,12033.88 -34454.43,11950.8 -35080.43,11801.05 -35555.36,11603.14 -35555.36,11603.14 -35557.21,11585.94 -35538.69,11508.68 -35506.41,11471.64 -35376.23,11379.83 -35316.43,11373.48 -35303.99,11365.54 -35278.06,11324.26 -35275.94,11297.01 -35321.98,11178.21 -35311.93,11146.72 -35280.71,11088.78 -35246.84,11053.85 -35222.5,11020.78 -35211.39,10994.85 -35203.45,10948.81 -35211.12,10913.88 -35193.39,10859.9 -35185.19,10798.78 -35165.88,10778.94 -35069.04,10735.81 -35011.1,10703.27 -34980.67,10675.75 -34969.03,10638.71 -34948.39,10628.92 -34911.08,10626.01 -34867.42,10601.4 -34773.76,10529.17 -34709.73,10517.79 -34669.78,10525.46 -34558.92,10493.18 -34519.23,10472.81 -34471.08,10463.28 -34382.97,10473.33 -34348.57,10431.26 -34331.9,10392.9 -34303.06,10376.76 -34246.44,10382.05 -34229.51,10396.34 -34194.58,10389.99 -34165.48,10370.41 -34120.24,10373.59 -34112.04,10387.61 -34112.57,10418.83 -34069.97,10452.96 -33995.09,10455.08 -33979.74,10444.5 -33967.57,10423.86 -33970.48,10413.54 -33939.52,10283.36 -33762.25,9299.9 -33731.56,9222.64 -33757.75,9091.41 -33754.57,9084.53 -33788.97,9056.75 -33828.13,8983.99 -33829.19,8971.03 -33811.99,8934.25 -33825.75,8887.15 -33835.54,8876.57 -33880.52,8860.96 -33960.69,8798.78 -34012.02,8738.45 -34006.73,8433.91 -33903.81,8427.03 -33857.51,8396.07 -33764.91,8371.73 -33694,8418.3 -33661.72,8421.21 -33628.12,8409.83 -33641.08,8365.12 -33633.14,8319.61 -33669.39,8264.05 -33684.47,8249.76 -33714.9,8233.88 -33754.85,8247.9 -33828.67,8231.76 -33923.13,8234.14 -33924.72,7972.2 -33899.32,7973.26 -33864.39,7957.91 -33804.06,7942.03 -33728.92,7965.05 -33225.42,7966.64 -33237.59,7949.18 -33258.49,7945.48 -33268.54,7913.73 -33243.4,7862.67 -33205.56,7873.25 -33189.42,7913.47 -33166.4,7948.4 -33148.94,7957.66 -33126.98,7957.92 -33084.38,7941.78 -33033.05,7886.48 -33024.58,7864.25 -32991.24,7831.44 -32923.77,7794.66 -32889.64,7806.83 -32858.68,7875.09 -32815.82,7927.74 -32796.24,7962.14 -32778.78,8009.24 -32772.69,8050.25 -32785.65,8146.29 -32780.36,8192.86 -32695.69,8173.02 -32475.82,8359.82 -32454.92,8367.23 -32388.77,8372.79 -32327.92,8346.33 -32282.94,8301.35 -32227.11,8270.66 -32169.17,8267.75 -32154.35,8275.42 -32133.98,8304 -32134.51,8329.66 -32163.88,8374.64 -32154.09,8400.57 -32138.74,8407.71 -32103.55,8388.66 -32088.73,8364.58 -32082.64,8330.45 -32056.18,8299.76 -32043.74,8293.67 -32017.28,8298.43 -32002.73,8293.67 -31991.88,8276.21 -31979.71,8215.09 -31966.22,8205.3 -31926.27,8195.77 -31848.75,8148.94 -31823.09,8163.49 -31798.48,8155.82 -31756.15,8128.3 -31729.16,8085.7 -31673.33,8053.69 -31619.62,8068.24 -31557.18,8024.58 -31542.63,8002.88 -31530.99,7932.5 -31531.78,7898.37 -31511.41,7874.03 -31484.16,7862.92 -31438.12,7862.39 -31402.67,7852.07 -31348.17,7809.74 -31322.77,7799.95 -31262.44,7792.01 " title="Amazonas"/>
  <path id="BR-AP" class="fil0 str0" d="M-26514.28 9145.9l-24.87 -1.59 -20.37 9 -34.4 3.18 -73.82 -17.99 -38.36 -27.25 -11.38 -39.69 -49.48 -36.78 -2.91 -34.4 5.56 -18.26 -8.2 -41.8 -8.73 -12.44 -25.14 -5.03 -10.85 -24.87 2.12 -64.29 -77.52 -86.78 -20.64 9.53 -21.7 -5.03 -39.69 -92.08 3.44 -41.8 -15.61 -47.89 -16.4 -14.82 -17.73 -39.95 -5.03 -55.83 11.38 -83.08 -4.5 -8.73 -68 -19.31 -53.45 -59.8 -20.11 -74.88 5.03 -19.05 17.99 -6.09 -12.96 -31.22 -17.99 0.79 -75.14 -70.38 -24.87 3.7 -10.05 11.11 -35.19 3.7 -22.23 -7.14 -21.17 -25.93 -30.16 -22.23 -31.49 -3.18 -12.96 -33.87 -17.73 -21.17 -51.06 -27.78 -34.13 -12.96 -89.69 -9.79 -28.58 7.67 -30.96 -0.53 -8.2 -14.29 -6.35 -38.1 6.61 -120.12 16.4 -34.4 -9.79 -60.85 -16.4 -15.08 0 0 9.26 -5.56 26.19 7.94 -0.26 21.43 -7.67 4.76 9 25.66 38.89 -1.59 21.7 6.09 9.26 23.81 22.23 18.79 59.53 20.64 87.05 19.84 73.03 -47.1 9.26 -20.11 45.77 -30.96 21.96 -7.67 18.26 24.87 71.7 24.87 28.58 -3.18 45.51 -26.72 3.18 -11.11 8.47 0.79 38.63 34.4 -5.29 23.02 62.71 -4.5 13.49 13.23 25.14 4.5 16.4 -0.26 24.08 -12.7 44.19 -39.69 47.1 -29.1 46.3 -60.85 9.79 -26.46 -5.29 -14.29 82.81 -171.98 2.91 -48.15 29.37 -34.4 19.31 -5.03 95.25 -153.19 6.09 -30.43 22.23 -31.75 47.36 -41.01 16.67 -43.92 55.83 -30.16 12.44 -24.34 27.52 -15.35 14.82 38.63 23.28 35.98 -44.19 -127 -1.85 -34.13 4.76 -8.73 89.16 64.03 30.16 32.01 24.08 32.28 13.76 31.49 0.79 41.8 11.64 8.2 8.47 -12.7 10.05 -2.65 5.56 10.58 5.56 208.76 17.46 102.39 71.7 160.07 70.38 236.54 87.84 132.29 26.72 9.26 86.52 -2.12 73.55 24.87 34.13 22.49 20.37 70.11 -4.23 88.11 -34.13 25.4 -45.77 11.38 -10.05 8.73 47.36 -3.97 27.52 -11.11 7.41 6.09 3.18 15.61 -4.5 19.31 -133.09 107.42 -30.96 55.56 -56.89 37.31 -51.33 98.43 -76.99 92.6 -18.52 12.17 -24.87 -2.38 -38.36 13.76 -55.03 78.85 0 0 -35.45 1.85 -19.84 23.81 0 0 -38.89 44.45 -25.66 58.74 -29.63 49.48 -22.23 17.2 -79.64 91.28 -9.53 63.5 4.5 47.63 -51.59 47.89 -25.93 3.18 -0.06 0.04zm618.06 -1243.28l-11.91 -8.73 -29.1 -49.21 1.85 -23.28 6.09 -10.85 43.92 -11.91 11.38 10.32 21.96 60.06 -26.19 29.1 -17.99 4.5 -0.01 0zm65.88 465.93l-10.58 -6.61 -2.12 -18.79 29.37 -29.1 23.28 -3.97 33.07 6.35 12.17 -2.91 11.64 -16.93 1.32 15.61 -25.66 38.1 -26.19 13.23 -46.3 5.03 0 -0.01zm91.02 -75.93l-20.64 -6.09 0 -14.82 19.05 -27.52 33.07 -2.65 4.76 9.26 -2.65 13.49 -33.6 28.31 0.01 0.02zm-190.24 -487.36l-20.11 -13.23 6.88 -21.96 23.28 -4.5 22.75 8.47 0.26 19.31 -33.07 11.91 0.01 0z" title="Amapá"/>
  <path id="BR-BA" class="fil0 str0" d="M-21685.11 16174.03l-9.53 -21.96 17.99 -35.72 -0.26 -14.02 -14.02 -27.52 -109.27 -80.7 -3.97 -13.49 5.82 -39.95 -15.08 -32.54 -17.2 6.35 -5.29 11.91 -9 4.76 -5.82 -6.61 14.02 -116.42 21.7 -87.31 21.7 -23.28 65.35 6.35 26.99 -18.79 0 -11.11 -14.82 -26.99 4.23 -70.11 131.23 -111.65 38.89 -81.49 -11.11 -30.96 -20.64 -26.99 -23.55 -1.59 -19.31 -10.05 -74.88 -65.35 -56.09 0.53 -57.94 -15.88 -60.06 -28.58 -72.23 -14.82 -52.39 -3.7 -34.93 26.19 -38.89 13.23 -69.06 -11.91 -15.08 5.56 -11.64 -104.78 -172.51 -164.04 -10.05 -4.76 -116.15 32.54 -40.48 -32.81 -13.49 5.56 -24.61 -5.82 -67.2 -32.28 -57.41 -42.86 -25.93 4.76 -115.09 -96.04 -29.1 -14.29 -72.23 -19.84 -46.83 6.61 -49.74 23.81 -21.43 29.63 -16.93 4.76 -141.02 -38.89 -16.14 -12.96 -6.88 -39.69 3.7 -23.55 34.13 -72.5 -22.75 -12.17 -60.33 -13.76 -57.68 -1.06 -31.75 -13.23 -47.36 -2.12 -101.34 41.8 -112.71 80.17 -16.93 29.37 -89.16 49.48 -53.45 10.58 -25.14 31.22 -47.89 41.01 -37.84 13.76 -26.46 -3.97 -48.95 68.26 -27.52 20.37 -56.36 -10.05 -19.05 3.44 -18.26 26.46 -35.45 24.34 -10.58 -6.35 37.84 -90.75 -13.49 -63.76 0 0 39.16 -52.12 6.61 -20.37 -6.09 -33.6 -17.73 -45.51 2.65 -17.73 18.79 -37.57 -1.32 -12.17 -84.93 -69.32 -44.71 -91.55 -16.4 -93.13 1.32 -41.01 31.75 -101.34 42.07 -27.25 6.09 -10.05 1.59 -24.87 -43.13 -22.23 -2.91 -8.73 12.7 -66.68 37.84 -28.05 -0.53 -9.79 -71.97 -65.09 0 0 -1.06 -24.61 35.98 -62.97 -1.06 -28.31 -4.5 -11.11 -38.63 -12.96 -24.87 -17.2 -9.26 -33.34 1.59 -77.26 5.03 -22.49 51.59 -44.19 30.16 -11.11 25.4 -19.05 -7.67 -16.67 -15.35 -13.76 -24.34 -7.67 -27.25 4.76 -9.26 -8.73 -2.38 -13.23 11.11 -25.4 53.98 -21.7 14.82 -11.91 -1.06 -20.11 -49.74 -25.93 -94.72 -17.73 -49.21 -51.86 -6.09 -24.34 13.23 -30.69 26.72 -19.31 40.22 -92.08 23.81 -16.14 26.72 -7.14 9.26 -10.05 -34.13 -47.63 5.03 -9.79 84.93 -69.32 101.07 -53.45 14.82 -12.44 5.82 -25.93 18.26 -17.2 0 0 61.65 -0.53 38.1 35.45 17.46 27.52 14.02 58.47 46.57 65.88 110.6 49.21 47.63 -13.76 55.83 4.76 8.73 -5.56 19.84 -38.36 30.16 -9.79 17.73 -23.02 30.96 -23.55 58.47 -19.84 35.19 4.5 39.16 14.02 35.72 -11.11 78.58 -64.03 78.05 -133.61 19.05 -22.75 6.35 -24.34 7.94 -67.73 -3.18 -30.69 -59.27 -117.21 1.32 -24.61 85.73 -43.66 51.59 -0.53 39.69 12.17 10.85 24.61 8.47 4.76 56.09 -11.38 36.78 -14.29 35.19 10.05 45.24 26.19 -3.44 17.2 5.03 7.67 21.7 7.41 79.38 -2.91 38.89 -16.93 44.98 -2.65 21.7 -32.28 39.95 -35.45 72.23 -9 20.37 -9.53 21.43 -25.93 57.41 0.26 16.4 16.67 8.2 1.32 49.21 -47.89 -2.65 -63.5 52.65 -10.05 20.9 4.76 27.78 -17.46 39.69 -61.12 12.17 -30.43 0 0 23.55 10.58 30.69 -7.14 58.21 7.67 74.61 36.78 11.64 13.49 -1.59 72.23 19.05 51.33 58.47 24.08 7.14 52.92 -24.34 44.45 48.42 16.4 25.4 -5.82 21.7 -24.34 75.94 -23.28 20.37 -94.72 13.23 -23.02 19.84 -4.23 20.64 14.02 16.67 1.32 63.24 -26.99 29.1 -32.81 4.5 -15.61 -6.61 -35.98 7.67 -6.61 59.27 -11.91 20.37 -54.24 43.66 -11.64 66.94 -38.63 15.61 -2.65 39.42 14.82 21.96 38.1 35.98 21.43 62.44 20.64 79.11 10.58 41.8 30.43 14.29 43.66 10.32 7.14 11.38 -3.97 7.67 -46.3 11.38 -11.64 26.46 -0.26 11.91 8.47 0.53 16.67 -16.4 23.28 11.91 21.96 13.23 9.79 55.56 22.75 0.53 24.87 32.28 80.7 0 0 14.29 37.04 26.99 7.67 11.91 -2.38 37.84 20.9 5.29 19.05 0 0 -17.73 30.69 5.56 56.62 33.87 66.15 52.65 51.59 19.84 30.43 -2.12 82.55 -17.46 42.86 -2.38 23.28 20.11 72.76 -7.94 15.35 -18.26 14.55 -67.47 26.46 -29.9 -19.84 -45.24 -0.26 -8.47 7.94 -15.61 41.8 0.53 20.37 25.14 42.33 29.1 17.46 13.76 39.42 37.84 39.95 3.97 10.32 -3.44 37.57 -9 10.32 3.18 11.11 15.61 13.76 51.06 24.34 12.7 18.79 14.29 9 41.01 16.93 76.46 -23.28 0 0 16.93 -0.53 9.53 10.85 -107.95 233.63 -101.34 137.32 -27.25 61.65 -133.09 151.87 -64.82 33.34 -23.02 -0.26 7.94 -37.84 9.79 -3.97 3.7 -29.1 -11.91 -51.06 -49.48 -6.61 -11.38 -34.4 -17.99 -19.84 -9.79 15.88 -12.17 61.65 -13.23 23.02 -14.55 10.05 -14.82 -7.67 -12.96 -46.04 2.91 -8.47 8.2 -3.44 -0.79 -10.32 -23.02 34.13 24.61 44.71 12.17 6.09 9.79 -3.97 30.43 6.88 -12.17 47.89 -32.01 30.43 -6.61 48.15 -33.07 25.66 -9.26 17.73 -5.29 22.23 4.76 22.49 -35.72 -10.32 -5.56 10.32 -9.53 66.68 9.53 -19.05 19.84 5.56 6.35 14.29 -6.09 10.85 1.59 16.4 7.94 7.94 8.73 26.46 -27.52 66.41 15.08 91.02 -14.55 12.96 -15.08 -5.82 -3.7 29.9 15.61 12.17 32.01 -45.51 -12.44 -58.47 21.7 -16.14 6.61 14.29 -1.59 46.57 -25.4 69.06 -19.58 143.67 -13.49 47.89 5.29 65.35 20.64 75.41 5.03 120.12 23.02 169.6 26.19 90.49 -58.47 176.21 -35.72 175.95 -12.44 26.72 -4.23 75.67 -28.05 98.43 -2.38 61.65 10.32 116.95 23.55 45.24 -59.27 78.85 -47.89 17.73 -24.87 16.93 -71.97 102.92 -15.08 53.98 0 0 -214.05 -136 -8.2 -14.02 -0.03 0.01zm589.49 -2063.75l-6.09 -31.75 19.58 -10.85 28.05 -27.52 4.23 -16.93 -9.79 -19.31 20.11 3.7 21.7 27.78 -1.32 14.02 -76.46 60.85 -0.01 0.01zm-66.94 181.24l-16.67 -0.79 0.26 -17.73 6.88 -9.53 -21.17 -5.82 -11.11 -10.58 3.44 -28.31 49.48 -3.97 4.23 5.29 2.91 29.9 -18.26 41.54 0.01 0z" title="Bahia"/>
  <polygon id="BR-CE" class="fil1 str0" points="-20460.35,10657.99 -20589.73,10700.06 -20658.79,10753.24 -20746.1,10930.25 -20768.33,10959.88 -20791.35,10974.96 -20808.55,11019.15 -20804.58,11038.73 -20841.62,11103.29 -20880.25,11143.24 -20895.33,11172.34 -20922.58,11179.22 -20943.22,11165.73 -20956.71,11167.58 -20978.94,11190.86 -21016.25,11250.39 -21025.25,11302.51 -21008.32,11307.01 -20990.86,11296.96 -20990.86,11296.96 -20992.98,11311.25 -21015.21,11341.68 -21042.46,11421.06 -21028.7,11455.72 -21046.16,11490.38 -21075,11507.05 -21079.5,11517.1 -21082.68,11541.71 -21076.33,11552.56 -21060.98,11560.23 -21051.72,11579.28 -21052.25,11623.2 -21019.44,11646.75 -21001.18,11648.87 -20992.18,11680.36 -21034.78,11772.7 -21066.27,11802.33 -21061.77,11808.94 -21061.77,11808.94 -21103.84,11821.9 -21132.15,11843.86 -21172.9,11904.45 -21216.56,11905.77 -21233.23,11862.38 -21253.87,11847.3 -21289.85,11834.6 -21316.57,11806.29 -21328.74,11780.1 -21377.16,11758.14 -21452.57,11707.87 -21534.06,11696.76 -21568.19,11699.41 -21624.81,11720.58 -21667.94,11725.61 -21691.49,11719.26 -21821.93,11713.97 -21821.93,11713.97 -21820.34,11679.04 -21838.33,11661.05 -21840.45,11635.39 -21810.29,11553.1 -21770.6,11493.57 -21770.34,11475.31 -21790.71,11444.62 -21858.44,11432.18 -21893.1,11414.98 -21919.82,11344.34 -21947.6,11206.76 -21967.71,11138.76 -21961.36,11126.85 -21986.23,10910.95 -21989.14,10900.9 -22013.48,10882.64 -21992.31,10867.29 -21976.7,10825.49 -21992.58,10746.38 -22019.04,10693.2 -22006.34,10650.87 -22027.24,10548.48 -22007.66,10512.5 -22007.13,10492.39 -22043.11,10450.32 -22054.75,10404.55 -22138.09,10234.69 -22185.72,10109.81 -22193.39,10075.68 -22188.63,10037.05 -22146.83,9984.93 -22117.99,9935.98 -22115.08,9914.81 -22115.08,9914.81 -22110.05,9911.11 -22111.11,9894.71 -22121.69,9877.25 -22104.49,9855.82 -21926.16,9850 -21849.7,9838.62 -21794.93,9821.16 -21599.14,9842.06 -21543.05,9871.69 -21491.72,9911.38 -21382.71,9969.06 -21344.08,9982.82 -21216.55,10062.2 -21184.54,10067.49 -21125.8,10128.08 -21046.69,10183.91 -20978.69,10202.96 -20914.13,10279.95 -20881.85,10296.09 -20803.53,10396.9 -20693.46,10478.39 -20654.83,10531.31 -20627.31,10557.5 -20587.62,10579.2 -20557.19,10579.99 -20494.48,10604.33 -20473.58,10622.06 " title="Ceará"/>
  <polygon id="BR-DF" class="fil1 str0" points="-24616.43,15341.65 -25005.1,15341.12 -25018.86,15254.87 -24994.52,15206.45 -24984.47,15107.76 -24668.29,15108.02 -24619.87,15160.41 -24618.28,15218.88 -24633.89,15250.37 -24639.45,15314.93 " title="Distrito Federal"/>
  <polygon id="BR-ES" class="fil1 str0" points="-22369.59,17392.17 -22377.26,17388.47 -22365.62,17326.56 -22350.54,17292.16 -22366.15,17209.61 -22361.92,17198.5 -22316.41,17144 -22180.15,17144.79 -22165.6,17136.32 -22139.94,17050.59 -22110.57,17016.99 -22087.29,16956.4 -22080.94,16910.89 -22074.06,16899.25 -22041.25,16876.5 -21996.01,16821.2 -21981.72,16742.62 -21989.39,16678.33 -22022.99,16603.98 -22052.09,16570.38 -22065.85,16568 -22077.76,16575.67 -22097.87,16568.26 -22110.83,16549.47 -22099.45,16534.92 -22060.29,16532.54 -22039.12,16541.8 -22013.46,16542.59 -21988.32,16536.24 -21979.85,16525.13 -21984.35,16479.62 -22019.01,16470.36 -22024.57,16459.51 -22016.63,16418.76 -22015.84,16367.96 -22029.6,16350.5 -22064.79,16332.77 -22072.73,16314.25 -22041.77,16263.19 -21984.36,16228.53 -21976.16,16228 -21948.38,16247.58 -21918.48,16250.49 -21917.95,16229.06 -21962.14,16169 -21926.69,16172.44 -21869.01,16164.77 -21846.78,16148.63 -21818.2,16140.16 -21776.4,16138.04 -21709.2,16159.47 -21685.12,16174.02 -21685.12,16174.02 -21685.12,16174.02 -21685.12,16174.02 -21677.18,16188.04 -21462.87,16324.04 -21462.87,16324.04 -21487.48,16412.68 -21495.68,16488.35 -21492.5,16583.34 -21473.45,16746.06 -21481.65,16811.41 -21521.07,16895.55 -21593.83,16932.33 -21608.38,16948.21 -21652.57,17036.32 -21678.5,17136.86 -21698.87,17175.75 -21720.83,17157.76 -21744.11,17154.32 -21751.78,17188.19 -21716.06,17201.95 -21767.39,17314.13 -21858.67,17415.73 -21865.02,17408.59 -21914.23,17426.05 -21935.4,17458.59 -21936.99,17495.37 -21948.1,17528.44 -21990.17,17581.89 -21997.84,17611.79 -21997.84,17611.79 -22040.7,17583.74 -22119.81,17593.53 -22234.64,17566.81 -22300.79,17536.91 -22318.52,17412.29 " title="Espírito Santo"/>
  <polygon id="BR-GO" class="fil1 str0" points="-24616.43,15341.65 -24639.45,15314.93 -24633.89,15250.37 -24618.28,15218.88 -24619.87,15160.41 -24668.29,15108.02 -24984.47,15107.76 -24994.52,15206.45 -25018.86,15254.87 -25005.1,15341.12 -24616.43,15341.65 -24616.43,15341.65 -24616.43,15341.65 -24616.43,15341.65 -24630.45,15381.87 -24622.25,15423.41 -24640.24,15465.48 -24667.76,15498.55 -24678.61,15537.44 -24656.12,15569.45 -24633.63,15578.45 -24596.06,15605.7 -24552.4,15726.35 -24552.4,15742.23 -24613.78,15813.93 -24699.51,15893.57 -24710.89,15950.19 -24682.05,15979.56 -24658.24,15967.12 -24616.44,15982.2 -24604,15998.34 -24599.24,16024.8 -24603.74,16043.59 -24623.05,16067.4 -24636.54,16117.41 -24605.05,16208.96 -24686.81,16263.46 -24717.5,16268.75 -24740.25,16292.56 -24752.95,16322.19 -24882.33,16394.69 -24900.85,16374.32 -25015.94,16325.11 -25030.49,16337.81 -25045.84,16340.19 -25092.14,16340.45 -25131.3,16333.04 -25233.43,16337.27 -25286.61,16313.72 -25395.88,16383.57 -25472.87,16460.83 -25481.6,16460.83 -25516.26,16423.26 -25556.48,16415.32 -25640.88,16458.71 -25739.04,16442.31 -25804.66,16467.71 -25863.66,16482 -25900.97,16537.56 -25932.98,16602.65 -25931.39,16629.11 -25953.62,16663.51 -25975.32,16670.92 -25997.55,16666.69 -26009.46,16670.39 -26034.33,16689.97 -26077.72,16745.53 -26092.8,16795.8 -26077.98,16811.94 -26078.24,16820.94 -26087.77,16827.03 -26110.52,16814.86 -26110.52,16814.86 -26116.87,16802.95 -26187.25,16743.68 -26270.59,16727.54 -26313.45,16686.53 -26363.72,16675.15 -26403.14,16674.09 -26491.78,16638.64 -26509.77,16616.15 -26591,16574.87 -26608.73,16558.73 -26646.83,16539.94 -26676.99,16535.44 -26748.43,16490.99 -26821.98,16495.22 -26922.52,16476.7 -26925.96,16467.97 -26919.08,16445.74 -26904,16414.78 -26869.34,16368.21 -26871.46,16357.1 -26930.99,16333.29 -26961.15,16351.02 -26978.61,16345.99 -26986.02,16335.14 -26992.11,16305.77 -26985.23,16237.51 -26990.26,16190.68 -26990.26,16190.68 -27015.4,16132.47 -27020.16,16041.72 -27057.47,15983.78 -27061.7,15964.99 -27051.12,15874.77 -26983.65,15772.91 -26973.6,15695.92 -26955.08,15675.55 -26901.63,15653.32 -26850.83,15606.49 -26817.76,15553.04 -26809.03,15501.45 -26795.8,15474.73 -26761.93,15447.21 -26740.23,15409.37 -26738.11,15368.62 -26691.81,15342.96 -26654.77,15273.64 -26584.66,15270.2 -26512.69,15247.45 -26504.22,15240.04 -26451.83,15129.18 -26433.04,15103.78 -26416.11,14995.3 -26406.06,14975.72 -26355.26,14924.39 -26311.6,14897.67 -26283.29,14890.79 -26250.75,14908.78 -26218.74,14889.47 -26181.96,14851.63 -26159.73,14774.11 -26128.77,14698.17 -26129.03,14677 -26141.73,14646.84 -26126.38,14574.34 -26084.05,14492.58 -26087.23,14355.53 -26055.22,14334.89 -26027.97,14265.3 -25975.05,14181.43 -25964.73,14153.12 -25968.96,14081.15 -25959.7,14057.34 -25934.04,14034.59 -25926.9,14004.69 -25929.02,13988.02 -25929.02,13988.02 -25920.02,13976.11 -25914.73,13926.37 -25897.27,13893.83 -25849.38,13838.53 -25834.56,13830.59 -25835.35,13875.83 -25867.63,13925.57 -25881.39,13987.48 -25817.89,13998.06 -25759.68,14025.31 -25655.7,14035.89 -25573.94,14081.13 -25466.25,14118.97 -25449.58,14112.88 -25406.45,13955.72 -25367.56,13892.48 -25336.34,13866.82 -25305.91,13901.48 -25278.39,13951.22 -25249.02,14049.38 -25232.88,14131.4 -25202.72,14132.72 -25182.88,14112.88 -25174.94,14086.42 -25160.12,14072.13 -25087.09,14081.13 -24967.23,14067.11 -24961.41,14086.69 -24976.23,14127.97 -24893.42,14166.86 -24804.78,14184.85 -24786.52,14182.73 -24773.03,14095.42 -24758.48,14096.21 -24718.53,14165.53 -24706.36,14171.88 -24659.26,14148.07 -24592.58,14093.04 -24472.72,14066.58 -24431.71,14066.58 -24363.98,14037.48 -24317.94,14002.03 -24176.12,13964.46 -24176.12,13964.46 -24104.15,14029.55 -24103.62,14039.6 -24141.46,14067.65 -24154.16,14134.33 -24151.51,14143.06 -24108.38,14165.29 -24109.97,14190.16 -24116.06,14200.21 -24158.13,14227.46 -24189.62,14328.8 -24190.94,14369.81 -24174.54,14462.94 -24129.56,14554.49 -24044.63,14623.81 -24043.31,14636.25 -24062.36,14673.82 -24065.01,14691.55 -24047.28,14737.06 -24041.19,14770.93 -24047.8,14791.3 -24086.96,14843.42 -24086.96,14843.42 -24113.42,14870.14 -24198.88,14861.14 -24222.69,14814.57 -24286.72,14775.41 -24317.68,14814.83 -24302.33,14914.58 -24317.41,14928.87 -24327.99,14932.31 -24401.54,14902.15 -24432.5,14908.24 -24442.29,14915.65 -24461.34,14999.79 -24442.29,15002.44 -24429.33,15033.13 -24444.41,15058 -24463.72,15076.52 -24462.66,15126.79 -24451.55,15142.93 -24437.53,15147.96 -24419.27,15260.67 -24433.29,15274.69 -24522.19,15298.5 -24582.78,15338.45 " title="Goiás"/>
  <path id="BR-MA" class="fil0 str0" d="M-23508.88 9919.01l-1.06 8.73 -53.98 56.89 -11.38 4.5 -1.06 38.1 52.12 -44.98 17.99 -32.01 56.09 -41.8 23.55 -30.16 27.25 -167.48 30.43 -18.52 29.37 -3.18 44.19 -24.34 17.2 -3.44 12.17 3.18 2.12 43.13 -5.29 11.91 -37.57 49.48 -84.93 46.3 -0.79 19.05 19.31 3.18 11.91 -21.43 30.43 -8.2 5.82 21.96 -15.61 13.49 6.61 7.94 111.39 -131.5 22.75 8.73 68.26 -24.61 106.89 11.38 -12.17 -63.76 16.14 -6.09 64.03 2.12 47.1 10.05 69.59 27.78 27.52 2.91 56.89 36.51 37.04 0.79 33.34 34.4 50.01 34.93 66.15 15.35 30.69 -5.03 14.82 20.11 9 1.32 42.07 -2.38 65.09 17.46 6.88 -23.81 -17.73 -12.44 44.19 -10.05 15.08 2.91 -2.38 11.11 0 0 -12.17 37.84 6.09 19.05 16.67 14.29 -10.05 40.48 -47.36 60.06 -109.27 105.04 -87.84 12.17 -21.17 -4.23 -77.26 89.96 1.06 47.63 -23.28 48.42 -50.01 48.95 -21.7 52.39 -16.93 4.5 -20.37 27.78 9.53 50.8 32.54 21.96 10.05 33.87 -7.41 38.63 -30.16 75.94 41.8 74.35 14.55 78.85 -2.91 64.29 -5.56 14.55 -108.48 116.95 -4.5 65.62 3.18 55.83 13.49 60.85 47.1 53.98 42.6 24.08 4.5 13.23 3.44 22.23 -10.32 58.21 -7.67 11.64 -3.18 32.01 -13.23 38.63 -32.01 34.66 -60.59 7.67 -17.2 -7.41 -21.96 1.06 -64.29 22.75 -40.22 2.91 -66.15 -48.15 -26.72 -5.56 -38.63 5.03 -26.72 15.88 -29.63 6.88 -6.09 -7.94 -22.23 6.35 -13.23 5.82 -50.27 50.54 0.26 12.17 -16.67 23.02 -53.18 52.92 -61.91 24.08 -75.94 67.73 -35.19 14.02 -27.78 1.06 -44.98 40.48 -28.58 9.53 -69.06 8.47 -71.97 20.11 -56.36 51.59 -25.93 78.58 -10.32 78.58 -16.67 61.38 -38.36 72.5 -7.94 5.82 -9 21.7 -3.44 40.22 -31.75 65.62 -44.98 37.04 -19.31 52.92 18.79 51.33 12.44 84.14 45.77 80.96 -1.06 13.76 -20.11 37.04 -3.44 168.28 -30.43 64.82 -6.88 28.05 -1.32 50.8 0 0 -33.87 -17.46 -16.14 -21.7 -21.7 -11.91 -26.19 -7.67 -47.1 5.29 -18.79 -4.76 -35.72 -52.92 -26.19 -75.67 -56.36 -42.86 -3.7 -43.66 43.39 -47.89 -2.12 -14.02 -102.66 -51.59 -16.4 -27.78 -1.59 -43.92 -19.84 -42.07 -24.87 -18.26 -55.03 -7.41 -5.29 -11.11 6.88 -18.79 69.59 -67.2 -9.79 -34.66 19.31 -70.91 18.26 -37.84 15.08 -14.55 35.45 -14.29 89.69 -9.26 -10.32 -35.72 16.93 -85.99 -2.12 -46.57 -47.63 -32.01 -112.98 24.87 -56.89 35.45 -60.06 -79.9 -24.08 -22.49 -79.38 -109.8 -23.28 1.85 -22.23 -38.1 16.14 -31.49 -2.91 -23.28 -6.61 -9 -36.25 -6.35 -11.11 7.14 -51.06 -35.19 4.76 -18.79 46.57 -17.46 46.3 -53.98 6.61 -42.07 -7.41 -26.46 8.2 -62.44 46.83 -162.98 0.26 -11.38 -17.99 -30.16 -6.09 -28.58 5.56 -98.43 -16.93 -39.69 -12.44 -92.34 -22.23 -27.25 -89.96 -38.1 -32.28 -0.53 -7.41 -8.47 -2.12 -27.25 -15.61 -18.26 -46.04 -7.67 -25.4 13.76 -37.04 -2.38 -73.55 -39.95 -22.75 -1.59 -51.86 14.02 -69.32 48.95 -14.02 16.93 0 0 -12.96 -2.12 389.2 -313 62.18 6.09 30.96 -24.34 41.01 -57.41 11.38 -30.43 41.01 -30.96 16.4 -76.2 29.63 -12.17 64.56 -61.38 12.44 -32.01 7.67 -50.27 42.33 -124.09 51.86 -40.75 39.16 -46.57 21.96 -38.36 12.17 -33.87 -4.76 -48.15 20.9 -21.43 -27.52 -41.8 97.37 -81.76 -3.44 -43.39 13.23 -62.97 46.04 -41.54 9.53 -18.79 23.81 -79.9 2.12 -42.6 -11.38 -14.02 -26.19 4.23 -7.14 -12.96 1.32 -16.4 30.16 -3.97 15.08 -19.58 18.79 -116.15 -4.23 -36.51 12.44 -27.25 20.37 -11.91 0 0 16.67 0 6.35 -6.35 -1.59 -14.29 9 -19.84 15.35 -14.02 35.45 25.93 11.91 48.68 31.49 3.18 20.37 -35.98 16.14 77.52 26.19 1.06 7.67 -12.96 1.85 -24.87 22.49 -1.06 44.71 14.02 13.23 18.26 -37.84 44.98 17.73 18.52 0.53 14.55 32.01 -53.98 12.96 -40.75 11.91 0 10.58 26.99 0 15.35 -23.02 24.34 -7.14 26.19 2.12 71.7 6.88 8.73 12.44 3.18 15.35 -3.7 25.4 -24.61 -12.44 -26.46 3.7 -15.88 34.93 -37.84 27.78 -6.61 56.36 15.61 39.69 -29.37 1.32 24.34 -9.53 5.56 -29.9 40.48 15.61 15.35 2.65 -9.79 33.07 -15.88 15.35 20.9 -3.7 32.01 43.13 46.3 22.75 -11.64 41.8 17.73 20.37 63.5 -2.91 25.14 -57.94 72.23 -10.05 23.55 2.65 17.46 15.88 -27.25 46.3 -44.45 21.96 -0.79 23.02 21.43 13.76 50.01 -7.14 32.54 -25.66 5.03 -27.25 24.08 -30.69 39.42 1.85 20.37 -30.69 62.18 -16.4 93.13 5.56 9 23.02 6.09 -0.02 -0.09zm13.76 11.91l-1.59 -20.9 14.02 -40.48 -10.85 -28.31 3.44 -17.46 24.08 -32.81 14.55 -5.03 1.32 62.18 -5.82 35.45 -21.17 15.88 -17.99 31.49 0.01 -0.01zm-166.69 -681.57l-11.64 -12.17 -2.12 -15.88 21.17 -29.63 22.23 -0.79 17.99 11.11 2.65 9 -5.03 9.53 -45.24 28.84 -0.01 -0.01zm92.6 110.6l-7.67 -7.94 1.59 -14.02 28.05 -23.55 12.7 1.85 13.23 22.49 -3.7 16.14 -10.58 -4.5 -33.6 9.53 -0.02 0zm-374.65 -127.27l-5.56 -1.32 25.14 -94.72 7.94 2.38 0.79 6.09 -10.85 80.96 -17.46 6.61z" title="Maranhão"/>
  <polygon id="BR-MG" class="fil0 str0" points="-21685.11,16174.03 -21709.19,16159.48 -21776.39,16138.05 -21818.19,16140.17 -21846.77,16148.64 -21869,16164.78 -21926.68,16172.45 -21962.13,16169.01 -21917.94,16229.07 -21918.47,16250.5 -21948.37,16247.59 -21976.15,16228.01 -21984.35,16228.54 -22041.76,16263.2 -22072.72,16314.26 -22064.78,16332.78 -22029.59,16350.51 -22015.83,16367.97 -22016.62,16418.77 -22024.56,16459.52 -22019,16470.37 -21984.34,16479.63 -21979.84,16525.14 -21988.31,16536.25 -22013.45,16542.6 -22039.11,16541.81 -22060.28,16532.55 -22099.44,16534.93 -22110.82,16549.48 -22097.86,16568.27 -22077.75,16575.68 -22065.84,16568.01 -22052.08,16570.39 -22022.98,16603.99 -21989.38,16678.34 -21981.71,16742.63 -21996,16821.21 -22041.24,16876.51 -22074.05,16899.26 -22080.93,16910.9 -22087.28,16956.41 -22110.56,17017 -22139.93,17050.6 -22165.59,17136.33 -22180.14,17144.8 -22316.4,17144.01 -22361.91,17198.51 -22366.14,17209.62 -22350.53,17292.17 -22365.61,17326.57 -22377.25,17388.48 -22369.58,17392.18 -22369.58,17392.18 -22436.52,17454.36 -22469.33,17461.5 -22484.15,17474.73 -22464.57,17493.25 -22527.01,17653.32 -22577.28,17751.48 -22579.66,17771.32 -22541.56,17774.76 -22533.89,17790.9 -22539.45,17804.66 -22606.39,17830.59 -22858.01,17950.45 -22894.26,17955.74 -22893.73,17943.57 -22906.69,17939.07 -22973.63,17931.93 -22988.71,17933.52 -23031.57,17958.39 -23064.64,17962.62 -23149.31,17964.74 -23158.84,17956.27 -23172.33,17958.39 -23280.81,18005.49 -23308.59,18025.86 -23353.83,18046.23 -23367.06,18038.82 -23435.59,18043.32 -23512.58,18078.77 -23576.61,18098.35 -23594.6,18111.31 -23594.6,18111.31 -23627.67,18130.62 -23685.88,18136.44 -23736.94,18163.43 -23769.48,18196.24 -23816.84,18213.97 -23879.81,18220.58 -23941.72,18218.46 -23941.98,18205.5 -23932.72,18192.54 -23935.1,18183.28 -23966.59,18192.01 -23971.35,18252.86 -23965,18258.95 -23966.32,18281.18 -23986.16,18307.11 -24020.56,18315.58 -24035.64,18304.2 -24131.15,18330.66 -24136.18,18316.64 -24189.36,18322.99 -24218.99,18316.38 -24272.7,18228.8 -24240.42,18210.01 -24254.18,18164.77 -24301.81,18142.81 -24349.17,18110.27 -24367.96,18067.67 -24353.94,18026.39 -24348.91,17935.11 -24355.79,17857.32 -24306.58,17785.35 -24288.06,17727.67 -24286.74,17694.07 -24292.83,17684.28 -24390.73,17649.35 -24417.19,17650.67 -24424.6,17660.2 -24445.24,17668.4 -24487.84,17669.72 -24487.05,17647.23 -24509.01,17594.58 -24543.41,17547.22 -24553.2,17488.75 -24561.4,17472.35 -24582.3,17452.77 -24577.27,17401.44 -24537.05,17347.73 -24535.46,17332.91 -24546.04,17291.9 -24595.78,17259.89 -24611.13,17243.75 -24603.46,17181.04 -24588.38,17154.32 -24593.67,17126.8 -24680.19,17038.16 -24714.59,17045.83 -24737.08,17062.76 -24780.74,17042.12 -24843.71,17045.03 -24851.91,17061.17 -24846.62,17073.34 -24858.26,17099.53 -24931.81,17117.52 -24961.18,17106.14 -25001.13,17067.78 -25027.85,17100.85 -25244.28,17118.84 -25256.45,17131.54 -25269.15,17163.03 -25262.01,17230.23 -25272.86,17241.87 -25304.35,17228.11 -25304.61,17154.56 -25311.22,17129.16 -25320.75,17118.84 -25335.57,17117.52 -25342.45,17122.55 -25353.3,17152.45 -25371.03,17177.32 -25385.32,17185.79 -25401.72,17185.26 -25433.73,17129.7 -25442.46,17092.13 -25438.76,17068.05 -25483.21,17047.15 -25540.89,17009.58 -25593.54,17025.19 -25636.4,17019.37 -25680.59,17028.63 -25794.1,17003.23 -25861.57,17001.11 -25907.34,16960.1 -25927.18,16956.4 -25966.87,16972.54 -26004.71,17017.25 -26055.51,17027.04 -26112.4,17056.41 -26144.68,17086.31 -26144.68,17086.31 -26136.48,17016.99 -26152.09,16932.06 -26125.9,16821.46 -26110.55,16814.85 -26110.55,16814.85 -26087.8,16827.02 -26078.27,16820.93 -26078.01,16811.93 -26092.83,16795.79 -26077.75,16745.52 -26034.36,16689.96 -26009.49,16670.38 -25997.58,16666.68 -25975.35,16670.91 -25953.65,16663.5 -25931.42,16629.1 -25933.01,16602.64 -25901,16537.55 -25863.69,16481.99 -25804.69,16467.7 -25739.07,16442.3 -25640.91,16458.7 -25556.51,16415.31 -25516.29,16423.25 -25481.63,16460.82 -25472.9,16460.82 -25395.91,16383.56 -25286.64,16313.71 -25233.46,16337.26 -25131.33,16333.03 -25092.17,16340.44 -25045.87,16340.18 -25030.52,16337.8 -25015.97,16325.1 -24900.88,16374.31 -24882.36,16394.68 -24752.98,16322.18 -24740.28,16292.55 -24717.53,16268.74 -24686.84,16263.45 -24605.08,16208.95 -24636.57,16117.4 -24623.08,16067.39 -24603.77,16043.58 -24599.27,16024.79 -24604.03,15998.33 -24616.47,15982.19 -24658.27,15967.11 -24682.08,15979.55 -24710.92,15950.18 -24699.54,15893.56 -24613.81,15813.92 -24552.43,15742.22 -24552.43,15726.34 -24596.09,15605.69 -24633.66,15578.44 -24656.15,15569.44 -24678.64,15537.43 -24667.79,15498.54 -24640.27,15465.47 -24622.28,15423.4 -24630.48,15381.86 -24616.46,15341.64 -24582.86,15338.46 -24522.27,15298.51 -24433.37,15274.7 -24419.35,15260.68 -24437.61,15147.97 -24451.63,15142.94 -24462.74,15126.8 -24463.8,15076.53 -24444.49,15058.01 -24429.41,15033.14 -24442.37,15002.45 -24461.42,14999.8 -24442.37,14915.66 -24432.58,14908.25 -24401.62,14902.16 -24328.07,14932.32 -24317.49,14928.88 -24302.41,14914.59 -24317.76,14814.84 -24286.8,14775.42 -24222.77,14814.58 -24198.96,14861.15 -24113.5,14870.15 -24087.04,14843.43 -24087.04,14843.43 -24073.55,14907.19 -24111.39,14998.21 -24100.81,15004.3 -24065.36,14980.22 -24046.84,14953.76 -24027.79,14950.32 -23971.43,14960.37 -23943.91,14940 -23894.96,14872 -23868.77,14875.97 -23830.93,14861.95 -23783.04,14820.94 -23757.9,14789.98 -23704.45,14779.13 -23615.29,14729.92 -23598.36,14700.55 -23485.38,14620.38 -23384.31,14578.58 -23336.68,14580.96 -23304.93,14594.19 -23247.25,14594.98 -23186.92,14609 -23164.43,14621.17 -23198.56,14693.67 -23202.53,14717.22 -23195.65,14756.64 -23179.51,14769.87 -23038.49,14808.5 -23021.56,14804 -23000.13,14774.37 -22950.39,14750.82 -22903.56,14743.94 -22831.33,14763.78 -22802.23,14778.07 -22687.14,14874.38 -22661.21,14869.62 -22603.8,14912.48 -22536.86,14944.76 -22512.25,14950.58 -22498.76,14945.02 -22458.28,14977.83 -22342.13,14945.29 -22332.08,14950.05 -22159.57,15114.09 -22147.93,15218.87 -22132.85,15213.31 -22063.79,15225.22 -22024.9,15211.99 -21989.97,15185.8 -21937.32,15189.77 -21865.09,15204.59 -21805.29,15233.17 -21747.35,15249.31 -21691.26,15248.52 -21616.38,15313.87 -21597.07,15323.92 -21573.52,15325.77 -21552.88,15352.76 -21541.77,15383.72 -21580.66,15465.21 -21711.89,15576.86 -21715.86,15646.97 -21701.04,15673.96 -21701.04,15685.07 -21728.03,15703.86 -21793.65,15697.51 -21815.35,15720.79 -21837.05,15808.1 -21851.07,15924.52 -21845.25,15931.13 -21835.99,15926.1 -21830.7,15914.19 -21813.77,15907.84 -21798.42,15940.38 -21804.24,15980.33 -21800.27,15993.82 -21690.73,16074.78 -21676.71,16102.3 -21676.45,16116.32 -21694.44,16152.04 " title="Minas Gerais"/>
  <polygon id="BR-MS" class="fil1 str0" points="-26144.66,17086.31 -26155.24,17151.4 -26162.65,17161.98 -26202.34,17182.62 -26237.27,17183.68 -26249.71,17189.5 -26281.99,17216.75 -26334.64,17287.66 -26353.95,17304.86 -26380.67,17312.8 -26397.07,17357.25 -26401.3,17434.77 -26469.83,17531.08 -26495.23,17544.84 -26501.32,17554.89 -26493.12,17605.95 -26495.24,17631.09 -26527.25,17693 -26580.17,17752.8 -26570.91,17775.29 -26578.32,17807.3 -26616.42,17834.55 -26627,17866.56 -26672.77,17911.27 -26706.11,17975.83 -26757.7,18025.31 -26957.73,18145.17 -26991.07,18175.33 -27010.65,18216.08 -27032.88,18244.66 -27032.88,18244.66 -27176.02,18304.72 -27205.39,18326.42 -27230,18388.07 -27229.47,18418.5 -27267.83,18512.69 -27285.56,18530.68 -27329.48,18557.4 -27358.85,18565.87 -27367.58,18575.13 -27409.12,18784.68 -27418.65,18806.38 -27481.62,18847.66 -27481.62,18847.66 -27549.09,18786.01 -27639.31,18736 -27744.88,18788.12 -27762.87,18807.96 -27806.79,18820.92 -27875.05,18832.3 -27937.49,18820.13 -27964.21,18802.93 -27976.65,18689.95 -27985.12,18671.43 -28008.93,18646.29 -28015.02,18580.94 -28001.53,18545.49 -28018.46,18524.59 -28020.84,18512.95 -28020.84,18437.01 -28044.39,18384.89 -28060.27,18312.39 -28061.59,18293.34 -28045.98,18257.36 -28045.45,18214.76 -28086.99,18185.92 -28097.04,18164.75 -28101.27,18107.6 -28144.93,18059.45 -28202.34,18052.57 -28242.29,18060.77 -28290.71,18053.1 -28355.8,18001.24 -28370.62,17961.82 -28411.37,17970.55 -28468.78,18043.05 -28495.24,18027.17 -28540.75,18048.6 -28569.33,18052.83 -28615.37,18034.57 -28683.1,18021.61 -28774.65,18027.7 -28871.49,18008.91 -28884.19,17984.83 -28936.84,17981.39 -28960.39,17995.15 -29026.54,17971.87 -29002.46,17779.52 -29013.84,17716.55 -28997.96,17678.98 -28972.03,17640.35 -28956.15,17480.81 -28973.61,17419.16 -28974.93,17373.39 -28995.04,17347.99 -29006.42,17345.61 -29019.38,17362.81 -29036.31,17276.56 -29057.21,17227.08 -29089.22,17173.63 -29098.48,17125.21 -28991.85,17064.36 -28971.74,17041.08 -29082.87,16938.95 -28940.52,16636.8 -28910.89,16635.21 -28918.3,16578.85 -28937.88,16575.41 -28852.42,16302.1 -28834.96,16271.41 -28916.72,16116.63 -28915.93,16066.09 -28915.93,16066.09 -28897.41,16071.38 -28870.42,16100.48 -28813.53,16140.7 -28664.83,16088.58 -28610.59,16035.66 -28557.14,15957.61 -28554.76,15926.65 -28517.72,15888.29 -28449.19,15889.08 -28407.91,15883.26 -28387.54,15892.26 -28343.62,15878.77 -28307.9,15845.7 -28254.45,15832.74 -28220.85,15838.03 -28200.74,15868.46 -28126.92,15901.53 -28057.6,15913.97 -28040.4,15923.23 -28033.26,15945.98 -28012.62,15972.97 -27932.45,16003.66 -27899.11,16033.03 -27866.3,16048.11 -27746.71,16031.44 -27713.37,16010.27 -27700.41,15987.78 -27662.57,15971.64 -27598.01,15973.49 -27555.94,16001.01 -27548,16037.26 -27541.65,16043.87 -27515.46,16044.93 -27459.1,16021.65 -27432.38,16023.24 -27283.68,15864.23 -27248.23,15860.79 -27280.77,16035.68 -27328.4,16054.2 -27372.32,16129.08 -27377.35,16141.25 -27373.38,16155.27 -27338.98,16158.18 -27292.94,16191.78 -27170.7,16198.92 -27155.62,16183.84 -27085.24,16181.72 -27062.22,16183.84 -27031.26,16198.92 -26990.25,16190.72 -26990.25,16190.72 -26985.22,16237.55 -26992.1,16305.81 -26986.01,16335.18 -26978.6,16346.03 -26961.14,16351.06 -26930.98,16333.33 -26871.45,16357.14 -26869.33,16368.25 -26903.99,16414.82 -26919.07,16445.78 -26925.95,16468.01 -26922.51,16476.74 -26821.97,16495.26 -26748.42,16491.03 -26676.98,16535.48 -26646.82,16539.98 -26608.72,16558.77 -26590.99,16574.91 -26509.76,16616.19 -26491.77,16638.68 -26403.13,16674.13 -26363.71,16675.19 -26313.44,16686.57 -26270.58,16727.58 -26187.24,16743.72 -26116.86,16802.99 -26110.51,16814.9 -26110.51,16814.9 -26125.86,16821.51 -26152.05,16932.11 -26136.44,17017.04 " title="Mato Grosso do Sul"/>
  <polygon id="BR-MT" class="fil1 str0" points="-30166.06,14340.99 -30127.17,14303.15 -30018.43,14235.15 -30004.67,14170.33 -29966.83,14070.32 -29942.22,14041.74 -29898.83,14027.72 -29887.45,14016.87 -29872.1,13994.64 -29858.34,13935.11 -29814.42,13881.93 -29799.6,13822.66 -29797.75,13777.42 -29813.1,13738 -29812.04,13683.76 -29852.52,13595.39 -29876.33,13596.18 -29891.68,13582.69 -29903.06,13496.7 -29899.36,13461.77 -29863.38,13433.19 -29826.34,13386.89 -29821.84,13367.05 -29859.15,13272.06 -29887.46,13260.68 -29916.83,13257.77 -30009.43,13260.15 -30041.71,13230.78 -30035.36,13215.96 -30489.39,13214.64 -30465.58,12976.51 -30505.27,12903.75 -30512.41,12857.18 -30511.62,12836.01 -30485.16,12742.88 -30495.21,12691.82 -30470.34,12647.63 -30492.3,12587.57 -30496.27,12550.79 -30503.15,12534.65 -30523.79,12522.21 -30525.38,12512.95 -30491.25,12380.92 -30471.14,12343.35 -30487.02,12310.54 -30524.06,12284.88 -30524.06,12284.88 -29258.03,12276.41 -29226.02,12257.1 -29194.8,12118.99 -29158.29,12007.34 -29170.46,11956.01 -29187.92,11919.76 -29190.57,11897.27 -29179.46,11874.78 -29156.71,11857.85 -29124.96,11809.7 -29117.82,11782.98 -29126.82,11760.75 -29125.23,11740.64 -29119.94,11724.5 -29088.72,11692.75 -29088.72,11692.75 -29057.76,11721.33 -28992.94,11828.75 -28982.36,11875.32 -28946.11,11980.1 -28911.18,12031.16 -28890.81,12074.02 -28896.9,12138.58 -28884.2,12202.08 -28864.89,12260.29 -28824.41,12289.66 -28745.03,12362.42 -28655.6,12407.4 -28649.51,12432.27 -28650.57,12461.37 -28644.48,12474.33 -28619.34,12484.91 -28597.64,12480.41 -28554.51,12492.32 -28540.22,12511.37 -28534.93,12539.95 -28525.67,12548.42 -28489.42,12536.51 -28391.79,12575.93 -27491.15,12639.96 -25825.07,12732.04 -25825.07,12732.04 -25842.27,12759.03 -25857.09,12809.04 -25886.19,12842.11 -25897.83,12925.19 -25909.21,12947.68 -25919,12954.82 -25970.33,13094.78 -25984.62,13173.36 -25985.68,13251.41 -26035.42,13409.9 -26033.83,13432.65 -25997.05,13468.1 -26001.28,13491.12 -26022.98,13514.67 -26024.3,13527.9 -25995.2,13587.43 -26007.64,13675.01 -26007.38,13716.55 -25993.62,13731.9 -25981.98,13812.6 -26001.56,13885.63 -25975.63,13974 -25950.23,13987.49 -25929.06,13988.02 -25929.06,13988.02 -25926.94,14004.69 -25934.08,14034.59 -25959.74,14057.34 -25969,14081.15 -25964.77,14153.12 -25975.09,14181.43 -26028.01,14265.3 -26055.26,14334.89 -26087.27,14355.53 -26084.09,14492.58 -26126.42,14574.34 -26141.77,14646.84 -26129.07,14677 -26128.81,14698.17 -26159.77,14774.11 -26182,14851.63 -26218.78,14889.47 -26250.79,14908.78 -26283.33,14890.79 -26311.64,14897.67 -26355.3,14924.39 -26406.1,14975.72 -26416.15,14995.3 -26433.08,15103.78 -26451.87,15129.18 -26504.26,15240.04 -26512.73,15247.45 -26584.7,15270.2 -26654.81,15273.64 -26691.85,15342.96 -26738.15,15368.62 -26740.27,15409.37 -26761.97,15447.21 -26795.84,15474.73 -26809.07,15501.45 -26817.8,15553.04 -26850.87,15606.49 -26901.67,15653.32 -26955.12,15675.55 -26973.64,15695.92 -26983.69,15772.91 -27051.16,15874.77 -27061.74,15964.99 -27057.51,15983.78 -27020.2,16041.72 -27015.44,16132.47 -26990.3,16190.68 -26990.3,16190.68 -27031.31,16198.88 -27062.27,16183.8 -27085.29,16181.68 -27155.67,16183.8 -27170.75,16198.88 -27292.99,16191.74 -27339.03,16158.14 -27373.43,16155.23 -27377.4,16141.21 -27372.37,16129.04 -27328.45,16054.16 -27280.82,16035.64 -27248.28,15860.75 -27283.73,15864.19 -27432.43,16023.2 -27459.15,16021.61 -27515.51,16044.89 -27541.7,16043.83 -27548.05,16037.22 -27555.99,16000.97 -27598.06,15973.45 -27662.62,15971.6 -27700.46,15987.74 -27713.42,16010.23 -27746.76,16031.4 -27866.35,16048.07 -27899.16,16032.99 -27932.5,16003.62 -28012.67,15972.93 -28033.31,15945.94 -28040.45,15923.19 -28057.65,15913.93 -28126.97,15901.49 -28200.79,15868.42 -28220.9,15837.99 -28254.5,15832.7 -28307.95,15845.66 -28343.67,15878.73 -28387.59,15892.22 -28407.96,15883.22 -28449.24,15889.04 -28517.77,15888.25 -28554.81,15926.61 -28557.19,15957.57 -28610.64,16035.62 -28664.88,16088.54 -28813.58,16140.66 -28870.47,16100.44 -28897.46,16071.34 -28915.98,16066.05 -28915.98,16066.05 -28933.44,16048.32 -28941.91,16027.15 -28927.62,16008.36 -28992.18,15951.47 -29026.05,15968.14 -29039.81,15966.82 -29070.77,15948.83 -29082.68,15930.31 -29136.13,15893 -29186.14,15872.89 -29194.08,15864.42 -29202.02,15834.79 -29208.11,15757.27 -29224.25,15710.44 -29229.28,15613.6 -29206,15570.21 -29175.84,15541.37 -29166.84,15494.27 -29168.16,15444.26 -29193.56,15445.85 -29204.14,15461.73 -29214.19,15465.96 -29924.86,15437.38 -29952.64,15102.68 -30094.72,14940.49 -29965.6,14938.9 -29974.86,14739.14 -30044.71,14598.38 -30057.67,14546.26 -30050.79,14518.21 -30034.65,14503.66 -30017.45,14469.79 -30055.55,14392.27 -30137.84,14364.75 " title="Mato Grosso"/>
  <path id="BR-PA" class="fil0 str0" d="M-25825.05 12732.06l-1666.08 -92.08 -900.64 -64.03 -97.63 -39.42 -36.25 11.91 -9.26 -8.2 -5.29 -28.84 -14.55 -19.05 -43.13 -11.91 -21.7 4.5 -25.14 -10.32 -6.09 -13.23 1.06 -29.1 -6.09 -24.87 -89.43 -44.98 -79.38 -73.03 -40.75 -29.37 -19.05 -58.21 -12.7 -63.24 6.09 -64.56 -20.37 -43.13 -35.19 -51.06 -36.25 -104.51 -10.32 -46.57 -64.82 -107.42 -31.22 -28.58 0 0 -15.08 -14.82 -3.97 -51.86 -16.93 -33.34 -42.07 -41.28 -28.31 -15.35 -9.79 -15.08 -21.96 -61.91 0.79 -29.9 15.35 -25.66 38.36 -29.9 20.64 -34.66 791.1 -1699.68 -47.89 -44.19 3.44 -20.64 -5.03 -12.7 -36.78 9.26 -22.49 16.14 -49.48 -20.64 -29.1 -57.41 -71.17 -38.36 -33.6 -35.45 -2.12 -15.88 -34.93 -21.7 -36.25 -3.97 -59.53 -17.2 -62.97 -34.66 -49.74 -17.73 -35.72 -28.84 -16.67 -23.81 -121.18 -67.2 -122.77 -99.75 -7.94 -11.64 -1.06 -24.61 -14.55 -48.42 -48.68 -32.54 -18.52 5.03 -9.53 -5.29 -48.42 -52.39 1.32 -55.83 9.26 -18.26 -4.76 -10.85 -44.71 -22.49 -6.35 -17.99 -4.76 -60.06 11.38 -38.36 -10.58 -128.59 0 0 -42.07 -449 0 0 19.84 8.47 11.38 15.35 -0.53 12.7 11.91 10.58 24.34 7.41 36.25 -18.79 12.44 -21.43 71.7 6.09 21.43 -27.78 -14.29 -47.89 47.36 -9.53 37.31 -43.13 69.85 26.72 49.74 0.79 14.29 -40.22 88.11 -42.86 52.12 10.32 30.69 -2.91 12.96 -6.61 31.75 -39.16 10.58 -37.04 38.63 -29.1 22.75 -2.91 17.2 12.17 55.83 -29.9 10.85 2.91 9.79 26.19 19.31 11.91 53.71 12.7 42.6 6.61 14.82 -15.88 44.19 -10.32 20.64 7.41 21.7 -0.26 22.75 -9 59.27 7.94 123.56 36.51 25.4 -3.7 26.46 -23.02 -0.79 -60.33 -54.77 -66.15 -32.81 -16.67 12.96 -44.45 34.66 -38.36 7.41 -29.37 8.2 -4.5 18.79 5.03 21.96 20.11 62.18 29.37 307.45 -61.65 41.54 44.71 26.99 1.59 11.64 -7.67 0 0 16.4 15.08 9.79 60.85 -16.4 34.4 -6.61 120.12 6.35 38.1 8.2 14.29 30.96 0.53 28.58 -7.67 89.69 9.79 34.13 12.96 51.06 27.78 17.73 21.17 12.96 33.87 31.49 3.18 30.16 22.23 21.17 25.93 22.23 7.14 35.19 -3.7 10.05 -11.11 24.87 -3.7 75.14 70.38 17.99 -0.79 12.96 31.22 -17.99 6.09 -5.03 19.05 20.11 74.88 53.45 59.8 68 19.31 4.5 8.73 -11.38 83.08 5.03 55.83 17.73 39.95 16.4 14.82 15.61 47.89 -3.44 41.8 39.69 92.08 21.7 5.03 20.64 -9.53 77.52 86.78 -2.12 64.29 10.85 24.87 25.14 5.03 8.73 12.44 8.2 41.8 -5.56 18.26 2.91 34.4 49.48 36.78 11.38 39.69 38.36 27.25 73.82 17.99 34.4 -3.18 20.37 -9 24.87 1.59 0 0 -14.02 19.58 7.67 42.07 -4.5 14.02 -34.13 29.37 -36.78 4.5 -13.23 -4.76 -22.23 -20.9 -17.46 -3.97 -89.43 41.8 -9.79 14.29 -42.33 19.05 -16.67 -0.53 -41.01 15.61 1.06 15.35 170.92 -28.05 23.28 17.46 3.44 12.17 0 17.46 -16.4 13.23 7.94 9.53 16.67 -5.29 22.75 -26.46 26.99 -0.26 14.02 -7.14 15.88 3.18 28.31 -11.11 30.16 -15.08 86.78 -61.91 39.69 -9.26 48.68 -21.43 83.61 -48.68 14.29 -26.46 17.73 -13.76 55.3 -26.72 17.46 -19.05 -6.61 -17.73 5.56 -10.85 29.9 -7.41 28.84 1.59 10.85 5.56 10.05 100.54 -13.76 68.26 8.73 42.86 21.43 42.33 34.66 35.72 7.94 43.39 -3.18 12.44 -48.68 48.68 -12.44 3.44 -23.02 -13.76 -48.15 -13.76 -33.34 -8.2 -24.61 3.7 -56.36 -27.52 -6.88 -29.63 -23.28 -14.02 -60.33 101.07 -16.14 62.71 17.99 78.58 12.7 16.93 24.34 16.4 -26.72 -30.16 -11.38 -71.17 3.18 -13.76 68 -111.65 61.12 31.22 2.91 11.91 66.94 64.82 -6.61 53.45 -19.58 14.55 10.58 61.65 13.76 29.9 29.63 19.84 19.58 3.97 13.76 12.96 -9 -16.93 -20.37 -6.35 -31.75 -27.52 -5.82 -17.99 9 -111.13 21.7 -31.49 37.84 19.31 21.96 31.75 -2.38 20.9 31.75 22.75 6.61 -7.67 -26.46 -33.34 -24.34 -55.56 0 -11.64 59.8 -61.38 42.86 2.38 51.06 16.93 9 14.82 -16.14 15.61 8.47 7.41 12.7 0.79 27.25 -4.5 35.19 -23.81 108.21 -25.4 20.37 5.29 46.04 28.05 83.87 -11.11 28.31 -10.85 26.99 -26.72 25.93 -15.61 46.04 -13.49 20.37 1.85 1.59 19.84 -53.98 106.36 -6.35 39.69 -12.17 28.31 -21.96 27.25 -0.26 23.28 15.35 37.57 -8.47 65.35 23.28 -31.49 0.26 -37.04 40.75 -79.38 29.9 -84.4 29.63 -41.28 7.14 -7.14 20.11 -1.32 15.35 -9.26 48.15 -6.09 23.28 -35.72 39.95 -44.71 35.98 -59.8 13.76 -12.17 20.9 12.96 16.4 -12.17 42.86 61.91 31.49 15.61 -1.32 -19.58 -9.26 -19.84 16.4 -26.72 92.87 -13.49 -27.25 -8.47 -92.87 12.17 -8.2 -5.56 7.67 -64.29 13.49 -7.67 17.73 10.05 26.99 2.91 28.31 -82.02 -17.99 -36.78 0.79 -17.99 30.96 -47.89 75.14 -65.62 9.53 -2.12 29.37 30.16 77.52 -55.3 12.17 -1.85 10.58 11.91 2.65 15.08 -8.47 17.73 28.31 -4.23 21.43 -15.35 9.53 -20.64 16.67 -5.03 7.41 3.97 19.58 36.78 35.19 31.75 5.29 -14.82 -2.91 -10.05 -25.4 -12.96 -3.7 -7.67 -3.44 -31.75 4.5 -11.11 11.64 -5.03 60.33 6.88 31.22 17.2 16.4 26.99 43.13 18.79 43.66 -20.64 14.02 56.62 -13.23 8.2 -0.79 15.61 24.34 -13.76 30.69 -62.18 10.05 6.09 -6.09 35.19 10.85 11.64 66.41 -6.88 11.91 17.2 12.17 44.45 -15.88 25.14 22.49 -13.23 6.88 9.79 50.01 3.7 93.4 -32.81 -8.2 41.8 -19.84 48.42 38.89 -12.96 15.61 -16.4 16.67 42.86 0 0 -20.37 11.91 -12.44 27.25 4.23 36.51 -18.79 116.15 -15.08 19.58 -30.16 3.97 -1.32 16.4 7.14 12.96 26.19 -4.23 11.38 14.02 -2.12 42.6 -23.81 79.9 -9.53 18.79 -46.04 41.54 -13.23 62.97 3.44 43.39 -97.37 81.76 27.52 41.8 -20.9 21.43 4.76 48.15 -12.17 33.87 -21.96 38.36 -39.16 46.57 -51.86 40.75 -42.33 124.09 -7.67 50.27 -12.44 32.01 -64.56 61.38 -29.63 12.17 -16.4 76.2 -41.01 30.96 -11.38 30.43 -41.01 57.41 -30.96 24.34 -62.18 -6.09 -389.2 313 12.96 2.12 0 0 60.59 21.43 49.48 -6.35 34.13 3.18 26.99 43.92 10.32 8.2 23.02 3.7 33.34 30.96 -1.06 16.67 -9.79 17.73 -19.05 9.79 -25.66 1.85 -7.67 7.41 2.38 37.31 26.72 35.45 -24.34 72.76 -16.93 12.7 -38.63 12.17 -6.61 12.17 7.67 31.75 -5.03 35.45 -34.4 3.97 -39.95 35.45 -22.49 33.6 3.97 39.95 -6.35 13.23 -66.15 31.75 -90.22 30.16 -65.35 47.1 -5.03 9.26 11.38 57.94 1.59 70.64 -33.87 55.56 -37.31 44.45 -3.97 15.08 4.5 23.28 15.61 25.4 44.19 46.04 19.84 8.47 3.97 7.94 -17.46 106.89 -46.57 136.26 -28.58 21.43 -44.98 85.73 -4.76 26.19 -24.87 40.75 -19.58 22.49 -27.78 4.23 -36.25 24.34 -27.25 50.8 -32.01 44.45 -31.22 28.84 -30.43 41.8 -29.9 118 -42.33 96.84 0 0.06zm559.86 -3447.78l-119.59 51.86 -89.69 13.76 -53.45 -8.2 -17.2 29.9 -48.68 31.49 -19.05 -16.14 -16.14 -40.48 -6.09 7.41 11.11 32.54 -9 21.43 -18.79 10.85 -99.75 -43.39 -21.17 19.05 -110.86 33.34 -84.67 -15.08 -21.43 -16.14 -6.35 -48.95 -6.09 -10.85 -29.37 -26.99 -28.05 -42.33 -5.56 -47.1 13.76 -72.76 16.4 -10.05 46.57 9.52 24.61 -19.84 2.12 -14.82 -34.4 11.38 -32.28 -3.44 -24.87 -18.79 -4.76 -27.78 9 -134.41 19.31 -20.11 9.26 19.84 46.57 15.88 14.55 -1.59 -12.17 -11.11 -33.6 -5.82 -23.81 -57.15 9.53 -44.45 23.55 -52.12 35.19 -35.19 25.4 -15.08 35.45 -12.96 34.93 -3.44 91.55 13.76 190.76 46.83 97.9 -12.17 2.91 -7.94 30.16 -16.4 57.15 -9.79 76.46 7.67 74.08 21.7 171.45 22.49 16.67 12.44 -1.32 32.54 -18.52 19.58 -17.99 39.69 -9.53 70.11 -22.75 87.31 -34.13 17.99 -9.26 18.26 6.09 31.49 -52.39 68.26 -36.78 92.6 -12.96 11.91 0.01 -0.02zm-1249.09 -4.5l-19.84 -13.49 29.1 -59.53 -2.38 -47.36 6.61 -5.56 61.65 -12.7 23.81 -22.75 3.97 -13.23 -5.29 -61.91 22.75 -68.26 33.34 -39.42 60.59 -38.89 75.94 -5.29 19.05 62.44 -29.1 57.94 -22.49 80.43 -29.1 17.73 -35.45 53.71 -20.64 19.05 -130.7 87.58 -41.8 9.53 -0.02 -0.02zm753.53 -605.9l-27.25 -6.61 -64.82 2.12 -20.9 -4.23 -7.67 -6.88 -10.05 -28.84 0.26 -32.81 39.95 -11.11 50.01 1.06 57.94 -34.13 127.26 -15.88 20.37 6.88 17.99 17.99 -4.76 26.99 -67.73 36.78 -47.1 65.62 -29.1 13.23 -34.4 -30.16 0 -0.02zm126.73 0l49.21 -31.75 52.39 0.79 43.66 16.4 14.02 26.19 1.32 16.4 -23.28 20.37 -75.41 7.41 -30.96 8.47 -59.8 -23.55 -5.29 -14.02 34.13 -26.72 0.01 0.01zm-449.26 116.15l-13.23 -6.88 -16.14 1.06 -40.75 -18.26 5.56 -30.69 16.93 -24.34 50.8 -10.58 62.44 -23.81 34.93 2.12 21.17 17.99 2.38 3.44 -51.06 42.6 -28.31 9 -44.71 38.36 -0.01 -0.01zm249.24 -256.38l-21.7 -7.94 -4.5 -43.92 3.97 -15.88 30.96 -34.66 64.82 -24.34 6.61 3.18 14.02 17.99 1.06 23.55 -51.59 52.65 -43.66 29.37 0.01 0zm-365.92 534.99l-3.7 -10.85 5.03 -24.61 27.52 -74.35 68.53 -44.71 19.05 -7.41 18.26 3.7 -4.23 47.36 -41.28 11.64 -42.86 57.94 -46.3 41.28 -0.02 0.01zm288.66 -464.87l-31.49 -8.2 -7.94 -12.7 23.28 -25.4 18.79 -104.51 23.55 -32.54 7.67 3.44 1.85 8.47 -0.53 65.62 15.88 49.48 -8.47 23.28 -27.25 10.58 -15.35 22.49 0.01 -0.01zm-391.85 269.61l-7.14 -5.03 3.18 -16.14 14.55 -9.53 31.49 -45.24 20.11 -40.75 19.31 -17.46 38.36 -14.29 -5.29 39.42 -10.58 26.46 -45.51 43.92 -58.47 38.63 -0.01 0.01zm366.98 -186l-15.88 -3.97 -22.23 -18.79 -25.4 -43.39 -1.32 -10.05 6.09 -7.67 21.43 -15.35 48.95 22.23 7.67 11.38 6.35 55.3 -25.66 10.32 0 -0.01zm-142.35 808.56l-17.2 -2.91 -23.28 -13.76 -18.26 12.17 -19.84 -7.41 -44.45 -46.04 0 -16.14 33.87 -0.26 80.96 34.93 8.2 39.42zm-559.59 -146.58l1.06 -27.25 -5.29 -7.94 15.88 -26.19 62.44 -23.28 20.64 10.05 23.02 22.75 -7.67 9.26 -27.25 12.44 -67.2 10.85 -15.61 19.31 -0.02 0zm336.02 -177l-4.76 -0.79 0.26 -9.26 14.29 -24.87 47.36 -42.86 11.11 -32.81 1.32 -34.4 6.35 -7.94 8.47 11.64 0 39.95 -23.55 72.23 -16.4 17.2 -44.45 11.91zm166.69 -261.94l43.66 -78.32 23.28 -5.56 18.79 5.03 7.14 23.02 -15.35 18.79 -77.52 37.04zm831.32 501.91l-22.23 -9.26 -9 -28.05 27.52 -45.51 28.31 -8.73 5.03 2.65 -0.53 19.58 -19.58 59.27 -9.53 10.05 0.01 0zm-885.83 -515.14l-14.29 -5.29 8.47 -53.98 35.19 -47.89 6.09 1.06 34.13 23.28 -0.26 6.61 -41.01 16.93 -28.31 59.27 -0.01 0.01zm59.01 133.09l19.05 0.79 -10.58 11.91 -24.87 8.2 -2.91 29.63 -20.9 18.79 -44.71 22.23 -4.23 -4.76 7.14 -21.96 12.44 -16.67 45.77 -44.19 23.81 -3.97 -0.01 0zm-596.9 270.14l-14.55 -5.03 -1.85 -9.26 11.38 -10.58 94.19 -42.33 14.29 18.52 -0.26 5.29 -37.04 19.31 -66.15 24.08 -0.01 0zm1680.89 -126.47l-27.25 -5.03 -21.7 -20.9 23.02 -33.07 35.45 -0.26 5.03 31.49 -2.65 15.61 -11.91 12.17 0.01 -0.01zm-985.57 -500.07l-62.44 18.52 -15.61 0.26 -4.76 -5.56 27.25 -27.52 27.52 -13.49 27.52 4.5 11.64 9 3.97 6.09 -3.97 5.56 -11.11 2.65 -0.01 -0.01zm-139.43 227.28l-2.12 -20.11 6.61 -13.23 65.62 -38.63 -23.81 52.92 -21.43 16.67 -24.87 2.38zm56.62 119.86l-11.91 -3.18 -1.85 -6.09 20.64 -39.69 31.49 0.53 -3.18 35.72 -35.19 12.7 0 0.01zm741.89 418.83l-7.41 -6.09 23.81 -42.33 17.99 -10.58 6.09 19.84 13.49 9.79 -6.88 13.76 -11.38 9 -16.67 -4.76 -19.05 11.38 0.01 -0.01zm-705.38 -617.01l-23.55 -1.85 0.53 -5.03 62.44 -48.68 1.06 25.4 -6.09 16.67 -6.61 9 -27.78 4.5 0 -0.01zm1784.88 270.41l-10.05 -14.02 5.03 -20.11 26.99 -24.08 6.61 3.97 6.09 46.3 -34.66 7.94 -0.01 0z" title="Pará"/>
  <polygon id="BR-PB" class="fil1 str0" points="-19490.92,11777.18 -19557.07,11722.68 -19578.77,11715.8 -19648.88,11710.24 -19710,11738.55 -19749.16,11772.42 -19761.07,11820.05 -19811.34,11847.3 -19864.52,11859.21 -19894.68,11858.68 -19894.68,11874.56 -19915.85,11888.58 -19973.53,11896.25 -20076.19,11889.37 -20118.79,11912.65 -20133.34,11929.58 -20181.49,11932.23 -20205.04,11950.49 -20219.33,11970.6 -20209.01,11989.91 -20208.75,12004.2 -20219.33,12016.9 -20266.43,12057.38 -20301.88,12061.61 -20345.54,12083.84 -20387.87,12062.94 -20413.01,12038.07 -20422.27,11978.8 -20415.92,11965.84 -20420.68,11957.9 -20450.84,11949.43 -20462.48,11957.1 -20502.43,11963.71 -20501.37,11951.8 -20434.43,11881.95 -20429.93,11870.57 -20448.98,11821.09 -20450.04,11808.65 -20440.25,11788.01 -20360.87,11759.7 -20357.96,11751.76 -20371.19,11714.98 -20463.79,11664.18 -20502.95,11675.03 -20561.69,11708.37 -20586.3,11748.32 -20625.46,11771.34 -20653.24,11779.54 -20724.68,11829.28 -20764.9,11872.67 -20808.03,11878.76 -20877.62,11904.42 -20897.99,11895.69 -20896.67,11877.7 -20913.34,11844.89 -20923.39,11842.77 -20948,11862.08 -20987.95,11870.55 -21014.14,11861.82 -21051.18,11811.28 -21061.76,11808.9 -21061.76,11808.9 -21066.26,11802.29 -21034.77,11772.66 -20992.17,11680.32 -21001.17,11648.83 -21019.43,11646.71 -21052.24,11623.16 -21051.71,11579.24 -21060.97,11560.19 -21076.32,11552.52 -21082.67,11541.67 -21079.49,11517.06 -21074.99,11507.01 -21046.15,11490.34 -21028.69,11455.68 -21042.45,11421.02 -21015.2,11341.64 -20992.97,11311.21 -20990.85,11296.92 -20990.85,11296.92 -20975.77,11284.75 -20924.71,11328.14 -20900.9,11339.25 -20824.7,11355.39 -20794.01,11325.49 -20708.55,11281.57 -20686.85,11262.78 -20684.2,11235.26 -20673.35,11210.12 -20589.21,11178.11 -20551.37,11174.93 -20465.12,11147.41 -20448.19,11149.53 -20434.17,11161.17 -20433.91,11192.66 -20513.02,11277.59 -20524.66,11302.99 -20534.71,11349.03 -20545.56,11359.08 -20568.05,11365.69 -20573.61,11373.89 -20575.73,11419.4 -20482.33,11433.16 -20473.86,11439.25 -20465.66,11475.76 -20457.99,11481.85 -20374.65,11448.51 -20327.82,11446.39 -20276.23,11454.33 -20252.68,11485.29 -20266.44,11526.04 -20244.48,11545.62 -20182.3,11521.01 -20169.07,11501.43 -20154.52,11469.42 -20166.96,11444.55 -20171.19,11406.98 -20158.49,11391.37 -20131.77,11399.84 -20145.79,11359.36 -20164.84,11338.72 -20156.64,11299.56 -20108.49,11263.84 -20071.98,11262.52 -20060.87,11272.84 -20063.52,11299.3 -20047.12,11312.26 -19956.63,11322.84 -19942.61,11332.1 -19788.36,11321.78 -19730.95,11329.72 -19665.86,11358.82 -19638.34,11348.24 -19545.74,11353.8 -19521.13,11347.45 -19521.13,11347.45 -19518.75,11410.95 -19480.39,11527.1 -19478.8,11544.03 -19483.56,11568.9 -19493.35,11580.81 -19494.14,11604.09 -19478.79,11584.51 -19465.3,11544.82 -19465.04,11597.21 -19449.43,11623.93 -19456.57,11760.98 -19466.1,11776.86 " title="Paraíba"/>
  <polygon id="BR-PE" class="fil1 str0" points="-20870.72,12519.07 -20903,12438.64 -20903.26,12413.77 -20959.09,12391.02 -20972.32,12381.23 -20984.23,12359.27 -20968.09,12335.72 -20968.62,12319.32 -20980.53,12310.85 -21006.99,12311.11 -21018.37,12322.75 -21026.04,12368.79 -21037.42,12372.76 -21047.74,12365.88 -21062.03,12322.22 -21103.83,12291.79 -21182.94,12281.21 -21245.38,12260.84 -21281.1,12239.41 -21303.06,12201.31 -21342.48,12186.49 -21358.09,12189.4 -21425.03,12228.03 -21468.69,12239.67 -21489.06,12293.91 -21548.06,12305.82 -21555.73,12312.43 -21549.12,12348.41 -21553.62,12364.02 -21582.72,12396.83 -21645.96,12424.08 -21662.89,12422.49 -21683.26,12408.47 -21703.37,12412.97 -21716.6,12435.99 -21736.97,12530.45 -21812.91,12553.73 -21834.61,12578.07 -21860.01,12584.16 -21908.69,12567.76 -21884.35,12523.31 -21891.23,12470.39 -21949.7,12446.31 -21968.75,12394.98 -21967.16,12322.75 -21978.8,12309.26 -22053.15,12272.75 -22111.36,12265.08 -22142.05,12271.96 -22165.86,12261.38 -22165.86,12261.38 -22096.54,12227.78 -22044.42,12182.54 -22030.13,12159.52 -21969.54,12124.33 -21943.88,12116.92 -21840.96,12014.53 -21821.38,11967.96 -21819.79,11907.9 -21827.46,11893.61 -21870.32,11851.81 -21868.47,11793.87 -21884.35,11763.97 -21885.94,11738.83 -21883.03,11726.92 -21869.27,11718.19 -21821.91,11713.96 -21821.91,11713.96 -21691.47,11719.25 -21667.92,11725.6 -21624.79,11720.57 -21568.17,11699.4 -21534.04,11696.75 -21452.55,11707.86 -21377.14,11758.13 -21328.72,11780.09 -21316.55,11806.28 -21289.83,11834.59 -21253.85,11847.29 -21233.21,11862.37 -21216.54,11905.76 -21172.88,11904.44 -21132.13,11843.85 -21103.82,11821.89 -21061.75,11808.93 -21061.75,11808.93 -21051.17,11811.31 -21014.13,11861.85 -20987.94,11870.58 -20947.99,11862.11 -20923.38,11842.8 -20913.33,11844.92 -20896.66,11877.73 -20897.98,11895.72 -20877.61,11904.45 -20808.02,11878.79 -20764.89,11872.7 -20724.67,11829.31 -20653.23,11779.57 -20625.45,11771.37 -20586.29,11748.35 -20561.68,11708.4 -20502.94,11675.06 -20463.78,11664.21 -20371.18,11715.01 -20357.95,11751.79 -20360.86,11759.73 -20440.24,11788.04 -20450.03,11808.68 -20448.97,11821.12 -20429.92,11870.6 -20434.42,11881.98 -20501.36,11951.83 -20502.42,11963.74 -20462.47,11957.13 -20450.83,11949.46 -20420.67,11957.93 -20415.91,11965.87 -20422.26,11978.83 -20413,12038.1 -20387.86,12062.97 -20345.53,12083.87 -20301.87,12061.64 -20266.42,12057.41 -20219.32,12016.93 -20208.74,12004.23 -20209,11989.94 -20219.32,11970.63 -20205.03,11950.52 -20181.48,11932.26 -20133.33,11929.61 -20118.78,11912.68 -20076.18,11889.4 -19973.52,11896.28 -19915.84,11888.61 -19894.67,11874.59 -19894.67,11858.71 -19864.51,11859.24 -19811.33,11847.33 -19761.06,11820.08 -19749.15,11772.45 -19709.99,11738.58 -19648.87,11710.27 -19578.76,11715.83 -19557.06,11722.71 -19490.91,11777.21 -19490.91,11777.21 -19467.63,11783.3 -19453.08,11815.58 -19486.68,11861.09 -19489.59,11875.64 -19489.33,11888.34 -19470.81,11898.13 -19463.67,11911.36 -19458.64,11939.41 -19510.5,12108.21 -19596.49,12345.01 -19596.49,12345.01 -19603.63,12339.45 -19680.36,12332.31 -19731.16,12310.88 -19770.05,12315.91 -19837.78,12350.04 -19897.05,12327.55 -19949.97,12333.9 -19990.98,12366.71 -19994.16,12378.62 -20051.84,12439.21 -20099.73,12468.58 -20130.42,12467.26 -20179.63,12495.31 -20210.59,12498.22 -20293.67,12490.55 -20359.82,12507.75 -20410.36,12495.05 -20457.46,12467.27 -20507.73,12411.18 -20575.2,12357.73 -20603.78,12360.91 -20647.97,12352.97 -20674.43,12320.69 -20696.13,12336.57 -20698.51,12354.83 -20761.48,12441.88 -20818.89,12461.99 -20835.82,12490.83 " title="Pernambuco"/>
  <polygon id="BR-PI" class="fil1 str0" points="-22261.9,9865.83 -22227.24,9869.01 -22208.98,9862.92 -22149.71,9876.41 -22123.52,9898.9 -22115.05,9914.78 -22115.05,9914.78 -22117.96,9935.95 -22146.8,9984.9 -22188.6,10037.02 -22193.36,10075.65 -22185.69,10109.78 -22138.06,10234.66 -22054.72,10404.52 -22043.08,10450.29 -22007.1,10492.36 -22007.63,10512.47 -22027.21,10548.45 -22006.31,10650.84 -22019.01,10693.17 -21992.55,10746.35 -21976.67,10825.46 -21992.28,10867.26 -22013.45,10882.61 -21989.11,10900.87 -21986.2,10910.92 -21961.33,11126.82 -21967.68,11138.73 -21947.57,11206.73 -21919.79,11344.31 -21893.07,11414.95 -21858.41,11432.15 -21790.68,11444.59 -21770.31,11475.28 -21770.57,11493.54 -21810.26,11553.07 -21840.42,11635.36 -21838.3,11661.02 -21820.31,11679.01 -21821.9,11713.94 -21821.9,11713.94 -21869.26,11718.17 -21883.02,11726.9 -21885.93,11738.81 -21884.34,11763.95 -21868.46,11793.85 -21870.31,11851.79 -21827.45,11893.59 -21819.78,11907.88 -21821.37,11967.94 -21840.95,12014.51 -21943.87,12116.9 -21969.53,12124.31 -22030.12,12159.5 -22044.41,12182.52 -22096.53,12227.76 -22165.85,12261.36 -22165.85,12261.36 -22177.76,12292.05 -22217.45,12352.9 -22245.23,12370.63 -22266.13,12365.87 -22319.05,12375.92 -22316.14,12439.42 -22365.35,12487.05 -22373.82,12485.73 -22390.22,12469.33 -22447.37,12469.07 -22469.07,12495 -22489.44,12504.53 -22561.67,12513.53 -22601.62,12548.98 -22623.32,12581.26 -22668.3,12583.91 -22707.46,12600.84 -22786.84,12603.75 -22808.54,12596.34 -22813.57,12588.93 -22810.13,12571.47 -22855.37,12545.54 -22890.56,12535.22 -22927.34,12549.77 -22983.7,12561.15 -22992.17,12556.39 -23003.02,12531.78 -23042.71,12519.61 -23094.3,12520.14 -23180.03,12563.8 -23181.62,12588.41 -23122.35,12705.89 -23119.17,12736.32 -23126.84,12804.32 -23133.45,12828.4 -23152.5,12851.15 -23230.55,12984.76 -23309.13,13048.79 -23344.85,13059.9 -23384.01,13045.88 -23419.46,13041.38 -23477.67,13061.22 -23508.63,13084.77 -23526.36,13107.79 -23556.52,13117.84 -23576.36,13156.2 -23585.09,13161.76 -23640.92,13157 -23688.55,13170.76 -23799.15,13121.81 -23845.98,13055.93 -23860,12997.46 -23877.46,12969.94 -23915.56,12934.49 -23977.21,12935.02 -23977.21,12935.02 -24055,12929.46 -24055,12929.46 -24053.68,12878.66 -24046.8,12850.61 -24016.37,12785.79 -24012.93,12617.51 -23992.82,12580.47 -23992.03,12566.98 -24037.8,12486.02 -24050.24,12401.62 -24068.76,12350.29 -24049.45,12297.37 -24004.47,12260.33 -23972.72,12194.71 -23969.28,12154.76 -23960.28,12132.8 -23952.34,12127.24 -23914.24,12054.74 -23897.57,11993.36 -23887.25,11914.78 -23861.32,11835.93 -23804.96,11784.34 -23732.99,11764.23 -23663.93,11756.03 -23635.62,11746.24 -23590.64,11705.76 -23562.86,11704.7 -23527.41,11690.94 -23451.74,11622.94 -23389.83,11598.86 -23336.65,11545.94 -23319.98,11522.92 -23319.98,11510.75 -23269.71,11459.95 -23256.48,11454.13 -23234.25,11447.78 -23228.16,11455.72 -23198.53,11448.84 -23172.07,11432.96 -23133.44,11427.93 -23106.72,11433.49 -23040.31,11481.64 -23000.36,11478.99 -22935.8,11456.24 -22913.84,11455.18 -22896.64,11462.59 -22836.31,11454.92 -22804.3,11420.26 -22791.07,11381.63 -22787.89,11349.62 -22780.22,11337.98 -22769.9,11279.77 -22773.34,11257.28 -22777.84,11244.05 -22820.44,11219.97 -22867.54,11166.26 -22881.03,11105.41 -22883.94,11049.58 -22879.44,10983.96 -22770.96,10866.75 -22765.4,10852.2 -22762.75,10787.91 -22777.3,10709.06 -22819.1,10634.98 -22788.94,10559.04 -22781.53,10520.15 -22791.58,10486.55 -22824.12,10464.32 -22833.38,10413.52 -22813.01,10385.74 -22796.08,10381.24 -22774.38,10328.85 -22724.37,10279.9 -22701.09,10231.48 -22702.15,10184.12 -22624.89,10093.9 -22603.46,10098.13 -22515.88,10085.96 -22406.61,9980.92 -22359.25,9920.86 -22348.93,9880.38 -22365.86,9866.36 -22371.68,9847.31 -22359.51,9809.21 -22359.51,9809.21 -22340.2,9812.39 -22301.31,9835.41 -22287.82,9848.9 -22291.26,9857.1 " title="Piauí"/>
  <polygon id="BR-PR" class="fil1 str0" points="-25144.54,19721.3 -25283.18,19720.51 -25291.91,19732.15 -25337.95,19738.5 -25358.06,19736.65 -25360.97,19726.33 -25402.51,19741.41 -25438.23,19779.25 -25526.87,19835.61 -25564.97,19831.38 -25597.51,19814.98 -25680.32,19746.19 -25707.57,19735.87 -25727.68,19735.61 -25802.82,19754.92 -25864.47,19759.42 -25885.9,19758.63 -25923.47,19738.52 -25952.84,19742.22 -25993.32,19759.42 -26008.93,19798.31 -26028.24,19821.33 -26077.72,19847.26 -26172.18,19836.41 -26225.1,19866.84 -26244.15,19887.21 -26262.41,19929.28 -26239.92,20008.39 -26262.94,20031.14 -26287.28,20031.67 -26307.12,20041.72 -26311.62,20054.68 -26346.81,20004.67 -26459.26,20008.11 -26558.74,19996.73 -26600.54,19965.51 -26604.77,19954.66 -26632.02,19937.99 -26744.73,19928.46 -26884.69,19884.01 -26946.6,19899.09 -27017.77,19898.3 -27071.22,19860.99 -27079.69,19847.5 -27107.74,19841.15 -27121.76,19840.89 -27140.55,19850.68 -27236.59,19850.15 -27236.59,19850.15 -27242.41,19818.14 -27309.35,19707.54 -27308.82,19639.01 -27335.01,19562.81 -27425.5,19500.1 -27454.34,19530 -27510.43,19527.09 -27539.53,19538.47 -27567.84,19562.28 -27606.47,19533.7 -27628.17,19535.29 -27635.58,19477.08 -27618.12,19435.54 -27589.81,19401.94 -27557.53,19344.26 -27555.94,19335.26 -27568.9,19315.42 -27568.37,19282.61 -27544.56,19186.3 -27511.22,19106.4 -27517.83,19045.55 -27483.96,18982.58 -27489.52,18955.59 -27511.75,18932.31 -27519.95,18889.98 -27502.49,18861.93 -27481.59,18847.64 -27481.59,18847.64 -27418.62,18806.36 -27409.09,18784.66 -27367.55,18575.11 -27358.82,18565.85 -27329.45,18557.38 -27285.53,18530.66 -27267.8,18512.67 -27229.44,18418.48 -27229.97,18388.05 -27205.36,18326.4 -27175.99,18304.7 -27032.85,18244.64 -27032.85,18244.64 -26946.6,18184.05 -26845.26,18201.25 -26739.16,18198.34 -26652.64,18206.01 -26620.63,18189.61 -26611.37,18173.73 -26592.06,18163.94 -26561.1,18171.61 -26521.94,18192.25 -26455.26,18204.42 -26385.41,18233.26 -26350.75,18236.7 -26322.44,18222.41 -26254.18,18222.15 -26233.54,18248.61 -26187.24,18270.84 -26094.37,18292.01 -26077.7,18305.5 -26058.91,18340.43 -26013.14,18342.28 -26002.03,18333.28 -25958.37,18337.25 -25940.91,18351.54 -25800.42,18354.98 -25721.84,18332.49 -25691.94,18373.5 -25596.95,18448.38 -25573.4,18494.95 -25573.14,18567.45 -25583.46,18582.8 -25587.69,18604.23 -25577.64,18652.91 -25543.24,18692.86 -25545.36,18739.43 -25554.89,18754.25 -25515.47,18833.63 -25483.46,18864.06 -25465.73,18871.47 -25452.5,18889.46 -25453.82,18913.01 -25429.48,18965.13 -25413.6,18972.8 -25406.99,18984.44 -25413.6,19012.22 -25447.2,19068.58 -25438.73,19122.56 -25422.85,19132.61 -25396.13,19138.17 -25333.16,19134.99 -25242.67,19120.97 -25229.44,19131.29 -25187.64,19126.26 -25145.57,19129.7 -25102.97,19163.04 -25106.67,19173.89 -25130.22,19191.09 -25148.48,19278.4 -25139.22,19299.04 -25110.91,19313.06 -25093.71,19290.57 -25064.61,19217.54 -25044.5,19213.04 -24987.88,19228.39 -24998.46,19279.98 -24979.15,19367.29 -24941.58,19382.64 -24937.35,19417.57 -24937.35,19417.57 -24973.07,19444.56 -24989.21,19483.72 -25003.76,19480.54 -24996.62,19429.21 -24958.52,19404.07 -24995.83,19411.48 -25019.38,19424.44 -25042.4,19423.91 -25051.4,19413.59 -25066.48,19409.09 -25080.77,19418.88 -25088.18,19443.49 -25074.42,19464.66 -25093.73,19490.06 -25101.67,19492.71 -25167.29,19478.69 -25188.19,19464.4 -25200.1,19467.58 -25204.86,19491.39 -25195.86,19501.18 -25153.26,19516 -25116.22,19509.39 -25059.86,19525.27 -25052.72,19537.97 -25078.38,19555.96 -25119.13,19629.51 -25151.94,19649.88 -25215.97,19664.96 -25221.26,19676.87 -25143.21,19671.58 -25139.24,19703.07 " title="Paraná"/>
  <path id="BR-RJ" class="fil1 str0" d="M-23250.12 18421.66l-1.85 -20.64 10.05 -7.14 84.4 5.82 68.53 -15.61 -66.94 -41.01 -37.04 -13.23 -74.35 17.99 -35.98 42.33 -27.25 8.47 -18.52 -1.32 -35.72 -56.89 -12.7 0 -23.81 11.11 -25.4 28.05 -83.34 21.17 -9 24.08 -5.03 50.27 57.94 3.44 28.31 26.72 -30.43 28.58 -24.87 -4.5 -37.57 4.5 0 0 -12.7 -6.88 -43.13 -45.77 -1.32 -10.85 28.84 -92.6 28.84 -30.43 62.18 -26.72 13.23 3.97 73.29 -9.53 39.69 -18.79 43.66 -56.89 -19.84 -43.39 -44.98 -0.26 -83.34 14.02 -46.83 -10.32 -32.54 -42.07 -14.82 -30.96 -33.6 -14.29 0 0 17.99 -12.96 64.03 -19.58 76.99 -35.45 68.26 -4.5 13.23 7.14 45.51 -20.37 27.78 -20.37 108.21 -47.36 13.76 -1.85 9.53 8.2 84.67 -1.85 33.07 -4.5 43.13 -24.87 15.08 -1.59 66.94 7.14 12.96 4.5 -0.53 12.44 36.51 -5.29 251.62 -119.86 66.94 -26.19 5.56 -13.76 -7.41 -16.14 -38.1 -3.44 2.38 -19.84 50.01 -98.16 62.44 -159.81 -19.31 -18.79 14.82 -12.96 32.81 -7.14 66.94 -62.44 0 0 51.06 20.11 17.73 124.62 66.15 29.9 114.56 26.72 79.11 -9.79 42.86 28.05 0 0 -2.12 33.6 -24.87 42.6 -5.82 56.36 30.16 179.39 -13.23 17.99 -81.49 46.3 -157.96 51.33 -74.88 45.51 -92.6 97.63 -2.91 43.92 8.2 31.49 -5.03 42.86 -19.31 39.16 -48.15 13.49 -173.3 -4.5 -153.19 18.52 -63.24 -12.17 -12.96 -10.05 -1.59 -17.99 27.25 -39.16 17.73 -38.36 -2.38 -16.4 -20.64 -4.76 -73.82 30.43 -6.88 18.26 8.2 20.9 36.51 30.96 6.61 25.66 -15.61 13.76 -43.13 13.49 -41.54 -0.79 -212.73 28.31 -38.63 11.91 0 -0.04zm-135.2 52.65l-17.73 -25.66 55.83 -41.01 49.21 24.87 11.38 18.52 -65.09 13.23 -10.85 -9.26 -12.44 0 -10.32 19.31 0.01 0z" title="Rio de Janeiro"/>
  <polygon id="BR-RN" class="fil1 str0" points="-19521.08,11347.5 -19545.69,11353.85 -19638.29,11348.29 -19665.81,11358.87 -19730.9,11329.77 -19788.31,11321.83 -19942.56,11332.15 -19956.58,11322.89 -20047.07,11312.31 -20063.47,11299.35 -20060.82,11272.89 -20071.93,11262.57 -20108.44,11263.89 -20156.59,11299.61 -20164.79,11338.77 -20145.74,11359.41 -20131.72,11399.89 -20158.44,11391.42 -20171.14,11407.03 -20166.91,11444.6 -20154.47,11469.47 -20169.02,11501.48 -20182.25,11521.06 -20244.43,11545.67 -20266.39,11526.09 -20252.63,11485.34 -20276.18,11454.38 -20327.77,11446.44 -20374.6,11448.56 -20457.94,11481.9 -20465.61,11475.81 -20473.81,11439.3 -20482.28,11433.21 -20575.68,11419.45 -20573.56,11373.94 -20568,11365.74 -20545.51,11359.13 -20534.66,11349.08 -20524.61,11303.04 -20512.97,11277.64 -20433.86,11192.71 -20434.12,11161.22 -20448.14,11149.58 -20465.07,11147.46 -20551.32,11174.98 -20589.16,11178.16 -20673.3,11210.17 -20684.15,11235.31 -20686.8,11262.83 -20708.5,11281.62 -20793.96,11325.54 -20824.65,11355.44 -20900.85,11339.3 -20924.66,11328.19 -20975.72,11284.8 -20990.8,11296.97 -20990.8,11296.97 -21008.26,11307.02 -21025.19,11302.52 -21016.19,11250.4 -20978.88,11190.87 -20956.65,11167.59 -20943.16,11165.74 -20922.52,11179.23 -20895.27,11172.35 -20880.19,11143.25 -20841.56,11103.3 -20804.52,11038.74 -20808.49,11019.16 -20791.29,10974.97 -20768.27,10959.89 -20746.04,10930.26 -20658.73,10753.25 -20589.67,10700.07 -20460.29,10658 -20460.29,10658 -20447.85,10678.11 -20425.1,10697.95 -20342.29,10697.69 -20310.01,10708.54 -20265.3,10754.84 -20230.37,10768.07 -20142.26,10759.6 -20066.06,10773.36 -19998.86,10767.01 -19937.21,10747.7 -19818.15,10772.04 -19784.55,10773.1 -19732.96,10795.85 -19705.97,10817.55 -19689.04,10842.42 -19627.92,10967.83 -19614.69,11015.19 -19615.75,11035.03 -19576.59,11177.38 -19571.03,11221.83 -19551.98,11236.12 -19526.58,11307.29 " title="Rio Grande do Norte"/>
  <polygon id="BR-RO" class="fil0 str0" points="-30685.71,14206.06 -30719.84,14167.7 -30731.48,14117.96 -30772.76,14104.2 -30795.51,14112.67 -30843.4,14114.79 -30951.09,14066.9 -30951.35,14056.32 -30968.81,14040.18 -31002.41,14055.79 -31054.8,14011.34 -31095.02,13985.68 -31117.77,13947.05 -31125.18,13910.27 -31152.7,13899.95 -31199.53,13929.58 -31231.81,13928.79 -31269.12,13907.62 -31292.14,13872.43 -31374.95,13830.63 -31426.81,13826.13 -31456.97,13840.42 -31480.78,13862.91 -31518.62,13858.41 -31526.82,13850.47 -31583.44,13836.98 -31664.4,13829.57 -31684.51,13818.19 -31715.73,13786.7 -31723.67,13734.58 -31765.47,13721.62 -31815.48,13695.96 -31837.18,13650.45 -31844.85,13645.16 -31916.82,13637.75 -31926.87,13628.49 -31949.1,13530.33 -31972.38,13506.78 -31985.08,13537.47 -32002.54,13529 -32009.68,13512.07 -31993.28,13471.59 -32015.51,13431.37 -32051.49,13421.05 -32084.83,13329.24 -32089.33,13285.32 -32048.32,13208.33 -32053.88,13164.41 -32084.57,13112.29 -32104.41,13055.14 -32106,12994.55 -32089.6,12981.32 -32079.55,12945.07 -32052.03,12917.29 -32042.5,12878.4 -32048.85,12838.98 -32059.96,12815.43 -32062.34,12774.95 -32048.05,12731.29 -32079.01,12673.61 -32106,12663.56 -32134.84,12689.49 -32136.43,12702.98 -32158.66,12728.38 -32173.74,12728.38 -32231.42,12701.39 -32368.47,12703.51 -32516.9,12750.61 -32561.61,12750.35 -32600.77,12763.05 -32600.77,12763.05 -32679.35,12729.71 -32679.35,12729.71 -32593.1,12661.98 -32542.3,12646.63 -32501.29,12598.74 -32497.32,12583.92 -32501.55,12549.79 -32396.77,12556.67 -32320.83,12547.94 -32301.78,12557.73 -32240.66,12619.38 -32230.87,12618.85 -32198.59,12597.95 -32195.15,12578.9 -32184.3,12564.88 -32155.72,12551.65 -32135.35,12555.09 -32099.1,12544.77 -32064.7,12512.76 -32016.02,12485.77 -32005.97,12488.15 -31989.04,12547.95 -31971.05,12561.97 -31953.06,12559.85 -31885.86,12476.24 -31892.74,12429.94 -31878.72,12407.71 -31832.42,12374.37 -31820.25,12374.9 -31798.02,12389.45 -31750.66,12392.1 -31718.91,12363.79 -31662.55,12353.74 -31560.16,12365.91 -31566.51,12327.28 -31563.6,12279.39 -31509.1,12247.38 -31487.67,12216.95 -31478.14,12189.96 -31482.64,12178.05 -31506.45,12159.53 -31505.13,12141.8 -31473.64,12099.73 -31408.02,12085.71 -31401.14,12079.89 -31403.52,12048.93 -31358.01,12035.7 -31321.5,11967.97 -31036.01,11966.38 -30979.12,11996.28 -30967.21,12009.24 -30946.04,12059.78 -30910.85,12093.38 -30843.65,12119.31 -30810.58,12205.83 -30798.41,12211.39 -30772.48,12207.95 -30756.08,12213.24 -30738.09,12289.44 -30652.36,12328.6 -30634.37,12323.57 -30620.08,12277.53 -30569.28,12248.95 -30532.5,12256.36 -30522.97,12266.41 -30524.03,12284.93 -30524.03,12284.93 -30486.99,12310.59 -30471.11,12343.4 -30491.22,12380.97 -30525.35,12513 -30523.76,12522.26 -30503.12,12534.7 -30496.24,12550.84 -30492.27,12587.62 -30470.31,12647.68 -30495.18,12691.87 -30485.13,12742.93 -30511.59,12836.06 -30512.38,12857.23 -30505.24,12903.8 -30465.55,12976.56 -30489.36,13214.69 -30035.33,13216.01 -30041.68,13230.83 -30009.4,13260.2 -29916.8,13257.82 -29887.43,13260.73 -29859.12,13272.11 -29821.81,13367.1 -29826.31,13386.94 -29863.35,13433.24 -29899.33,13461.82 -29903.03,13496.75 -29891.65,13582.74 -29876.3,13596.23 -29852.49,13595.44 -29812.01,13683.81 -29813.07,13738.05 -29797.72,13777.47 -29799.57,13822.71 -29814.39,13881.98 -29858.31,13935.16 -29872.07,13994.69 -29887.42,14016.92 -29898.8,14027.77 -29942.19,14041.79 -29966.8,14070.37 -30004.64,14170.38 -30018.4,14235.2 -30127.14,14303.2 -30166.03,14341.04 -30166.03,14341.04 -30185.61,14339.98 -30254.14,14298.97 -30287.74,14261.13 -30475.07,14286.53 -30510,14275.15 -30516.61,14267.21 -30606.04,14284.67 -30618.74,14280.44 -30632.5,14244.72 " title="Rondônia"/>
  <polygon id="BR-RR" class="fil0 str0" points="-29434.49,8132.55 -29392.16,8581.55 -29392.16,8581.55 -29881.37,8579.7 -29880.58,8597.69 -29942.23,8683.94 -29986.15,8764.11 -29988,8794.01 -30018.43,8863.86 -30021.34,8881.32 -30015.25,8900.63 -29985.09,8937.94 -29985.62,8951.96 -29996.73,8962.28 -30050.44,8976.83 -30087.75,9014.14 -30120.82,9026.31 -30168.97,9020.22 -30193.31,8953.81 -30242.79,8899.83 -30317.67,8875.22 -30360,8876.81 -30374.55,8900.36 -30429.85,8919.15 -30463.72,8937.41 -30490.71,8970.75 -30512.41,9049.33 -30502.62,9096.96 -30509.23,9142.73 -30529.07,9203.32 -30517.43,9259.15 -30579.87,9231.63 -30615.32,9242.74 -30629.34,9240.89 -30656.86,9186.91 -30696.02,9143.25 -30747.88,9108.59 -30761.64,9107.53 -30894.2,8990.58 -30890.5,8960.42 -30841.82,8969.15 -30811.66,8934.22 -30810.07,8918.87 -30839.97,8804.31 -30855.32,8780.5 -30887.6,8758.27 -30910.88,8700.86 -30918.55,8569.1 -30903.47,8543.7 -30883.1,8463.27 -30900.56,8421.47 -30910.09,8379.4 -30867.23,8340.77 -30868.55,8328.86 -30891.57,8299.23 -30896.6,8239.43 -30940.52,8113.49 -31012.75,8014.54 -30993.96,7974.85 -30969.88,7887.01 -30982.84,7869.55 -31034.43,7844.41 -31070.41,7841.5 -31093.69,7847.06 -31119.35,7837.27 -31151.36,7806.31 -31152.95,7780.91 -31169.62,7778 -31199.52,7789.11 -31215.66,7788.85 -31235.5,7779.85 -31254.55,7759.21 -31254.55,7759.21 -31246.61,7747.04 -31240.52,7686.71 -31248.46,7680.89 -31337.62,7674.8 -31436.84,7678.5 -31524.42,7659.98 -31529.71,7644.1 -31508.54,7597.53 -31505.36,7558.37 -31524.67,7511.54 -31576,7417.88 -31595.31,7363.38 -31607.75,7264.95 -31586.85,7225.79 -31588.97,7200.39 -31637.65,7147.47 -31694.8,7119.42 -31769.15,7045.87 -31797.2,6997.98 -31804.87,6972.58 -31835.03,6955.38 -31841.64,6945.06 -31840.85,6922.83 -31833.18,6914.1 -31809.37,6915.95 -31779.74,6933.41 -31754.87,6979.18 -31738.73,6981.56 -31649.04,6968.33 -31613.32,6970.98 -31562.78,6986.59 -31546.64,7018.34 -31532.09,7069.4 -31517.8,7078.66 -31492.4,7076.54 -31472.82,7059.34 -31447.68,7048.76 -31363.54,7052.99 -31351.1,7054.31 -31316.44,7086.32 -31300.56,7090.29 -31286.8,7086.59 -31270.66,7045.31 -31236,7049.01 -31197.64,7073.62 -31093.66,7194.53 -31065.88,7209.61 -31047.09,7212.52 -31007.14,7194.53 -30987.56,7164.63 -30984.91,7142.4 -31006.87,7069.37 -30997.34,7023.33 -30985.17,7015.92 -30934.11,7014.6 -30907.39,6985.5 -30866.38,6956.66 -30846.54,6957.98 -30743.35,6993.43 -30727.74,6988.93 -30706.57,6969.88 -30679.32,6961.94 -30649.42,6971.2 -30622.17,6965.64 -30586.72,6931.77 -30560.26,6925.16 -30529.83,6931.25 -30500.46,6929.4 -30482.47,6906.91 -30481.15,6871.19 -30400.98,6823.3 -30339.33,6828.33 -30266.3,6818.01 -30242.75,6788.11 -30240.37,6769.32 -30224.76,6739.69 -30204.92,6736.25 -30155.97,6712.44 -30126.87,6684.92 -30097.5,6639.68 -30129.25,6545.49 -30160.21,6535.96 -30143.28,6531.2 -30105.44,6533.05 -30084.27,6541.52 -29989.81,6538.87 -29961.76,6513.73 -29942.18,6507.91 -29905.93,6519.02 -29891.91,6553.68 -29864.39,6574.85 -29851.69,6611.1 -29869.42,6740.75 -29888.47,6777.26 -29921.54,6795.78 -29919.95,6817.74 -29877.35,6828.59 -29834.49,6822.77 -29772.31,6844.2 -29724.16,6873.3 -29747.44,6911.14 -29747.7,6941.57 -29685.79,7032.06 -29680.5,7073.07 -29720.45,7150.33 -29770.19,7187.64 -29789.24,7227.33 -29782.1,7237.65 -29780.51,7295.06 -29819.4,7358.82 -29843.21,7432.11 -29851.41,7500.11 -29853.79,7570.75 -29827.86,7620.23 -29814.37,7666.8 -29814.63,7703.84 -29773.09,7731.09 -29749.28,7736.38 -29745.84,7754.37 -29758.01,7890.63 -29754.83,7910.21 -29706.94,7917.88 -29724.4,7948.84 -29712.23,7962.07 -29655.34,7981.65 -29616.71,8032.45 -29546.33,8104.95 " title="Roraima"/>
  <polygon id="BR-RS" class="fil1 str0" points="-27122.56,23402.18 -27132.09,23402.44 -27183.42,23373.07 -27188.71,23360.9 -27174.95,23247.92 -27187.12,23135.47 -27183.15,23107.16 -27166.48,23074.35 -27091.34,23011.38 -27069.38,22970.1 -27008.53,22902.37 -27047.16,22858.71 -27075.47,22842.31 -27135,22826.43 -27196.38,22766.9 -27228.39,22724.04 -27231.04,22681.97 -27242.42,22650.75 -27274.96,22597.04 -27329.46,22537.77 -27347.19,22522.16 -27410.43,22490.15 -27448.79,22495.71 -27499.06,22455.76 -27539.28,22412.63 -27572.35,22391.99 -27576.05,22347.01 -27626.32,22289.86 -27714.16,22277.69 -27738.5,22265.25 -27784.27,22221.33 -27830.84,22224.77 -27888.25,22188.26 -27938.79,22090.1 -27968.16,22050.68 -28035.1,21994.59 -28053.62,21996.71 -28071.35,22044.07 -28139.88,22103.34 -28210.52,22106.52 -28207.87,22030.85 -28197.29,21996.98 -28207.61,21970.52 -28304.18,21857.01 -28366.89,21810.18 -28424.57,21755.68 -28470.87,21699.85 -28542.04,21641.38 -28592.31,21637.68 -28649.2,21643.24 -28679.36,21679.22 -28680.95,21704.62 -28708.2,21730.28 -28737.57,21730.81 -28752.92,21718.11 -28836.53,21721.81 -28853.73,21709.11 -28857.96,21685.03 -28870.92,21679.21 -28848.43,21673.39 -28820.91,21654.34 -28754.23,21581.05 -28751.32,21532.37 -28735.44,21499.3 -28713.74,21487.39 -28679.61,21485.54 -28662.68,21478.66 -28638.34,21452.2 -28494.14,21280.75 -28477.47,21243.18 -28472.97,21213.81 -28451.27,21185.5 -28419.52,21163.01 -28383.27,21152.16 -28331.41,21040.51 -28328.76,21024.37 -28320.56,21014.58 -28277.17,20991.83 -28234.04,20944.2 -28211.55,20913.77 -28198.06,20879.64 -28162.61,20824.08 -28138,20816.41 -28096.46,20821.17 -28081.91,20842.07 -28069.47,20808.2 -28075.03,20792.85 -28110.75,20771.15 -28112.07,20761.62 -28102.81,20752.89 -28074.23,20742.84 -28052.53,20717.44 -27978.71,20692.3 -27950.93,20663.99 -27948.28,20639.65 -27926.58,20615.57 -27868.11,20585.14 -27802.76,20574.56 -27755.93,20526.67 -27751.96,20498.62 -27717.03,20436.18 -27708.3,20435.12 -27706.98,20444.65 -27699.31,20449.94 -27664.12,20445.44 -27599.56,20415.54 -27528.65,20399.93 -27496.64,20384.85 -27441.08,20322.67 -27427.85,20322.93 -27410.12,20312.61 -27383.4,20276.89 -27322.28,20257.58 -27314.34,20267.63 -27314.34,20267.63 -27221.21,20277.95 -27134.96,20247.52 -27120.14,20226.09 -27084.42,20241.44 -27088.39,20265.78 -27006.9,20264.99 -26963.77,20291.18 -26896.04,20281.39 -26845.24,20311.82 -26776.98,20300.97 -26736.23,20305.73 -26662.15,20301.5 -26602.35,20325.84 -26536.73,20362.88 -26510.27,20427.44 -26468.2,20432.47 -26465.82,20419.77 -26417.93,20410.51 -26270.82,20504.17 -26234.57,20545.18 -26215.78,20544.39 -26174.5,20570.32 -26094.33,20662.66 -26050.94,20721.13 -26038.24,20760.29 -25980.83,20830.67 -25949.87,20845.22 -25772.86,20873.27 -25717.03,20862.69 -25628.39,20871.69 -25605.11,20933.6 -25660.14,20975.4 -25693.74,20986.25 -25713.05,21035.46 -25707.23,21093.4 -25717.28,21134.68 -25731.04,21169.08 -25762.26,21174.37 -25796.39,21219.08 -25797.18,21256.39 -25749.55,21287.35 -25742.41,21282.06 -25749.82,21256.4 -25749.56,21231 -25710.14,21209.3 -25668.34,21226.23 -25649.03,21250.31 -25618.07,21272.8 -25606.16,21272.01 -25606.16,21272.01 -25643.2,21317.78 -25746.39,21504.05 -25857.78,21810.97 -26024.47,22088.25 -26168.4,22264.46 -26340.64,22422.15 -26501.77,22519.52 -26583.79,22633.56 -26588.55,22622.18 -26571.35,22580.38 -26562.35,22522.7 -26593.57,22477.46 -26590.92,22466.35 -26566.31,22461.85 -26539.59,22472.43 -26524.77,22487.78 -26497.78,22488.84 -26429.52,22451.53 -26407.82,22433.54 -26332.41,22335.38 -26312.57,22317.12 -26300.66,22322.15 -26273.67,22317.12 -26245.89,22294.89 -26221.28,22261.29 -26211.49,22222.13 -26206.73,22197.52 -26212.82,22141.96 -26207.53,22105.71 -26165.99,22103.86 -26146.41,22111.8 -26139.27,22133.76 -26130.01,22126.88 -26137.68,22089.84 -26124.19,22035.07 -26111.49,22019.99 -26038.99,21977.92 -26019.68,21949.34 -26007.24,21876.58 -26012.8,21816.25 -25997.98,21798.26 -25984.75,21819.43 -25974.96,21820.22 -25963.58,21809.11 -25951.14,21727.62 -25953.79,21715.98 -25978.93,21683.7 -25996.66,21682.91 -26003.54,21701.17 -25999.04,21711.49 -26002.74,21726.57 -26012,21731.86 -26051.95,21731.33 -26105.13,21741.91 -26114.13,21784.51 -26128.15,21785.83 -26149.58,21774.19 -26146.93,21728.95 -26168.63,21705.4 -26196.15,21714.13 -26212.03,21701.43 -26231.34,21668.09 -26241.92,21629.73 -26238.74,21614.65 -26255.67,21596.39 -26271.81,21668.09 -26260.17,21727.62 -26227.1,21783.45 -26242.18,21804.88 -26261.76,21872.08 -26251.71,21952.25 -26256.47,21972.62 -26269.17,21962.83 -26262.29,21956.48 -26263.08,21937.69 -26275.52,21903.82 -26287.43,21893.5 -26301.45,21910.96 -26302.24,21947.21 -26339.55,22033.73 -26340.87,22083.74 -26335.05,22097.5 -26354.1,22116.02 -26396.7,22132.95 -26412.84,22174.75 -26521.05,22216.29 -26540.1,22230.31 -26554.12,22272.38 -26556.77,22332.44 -26582.43,22392.5 -26644.87,22426.9 -26647.78,22473.47 -26635.08,22495.43 -26628.47,22522.42 -26653.61,22537.24 -26660.22,22577.19 -26648.84,22593.07 -26630.85,22589.37 -26596.45,22606.04 -26592.48,22630.12 -26648.84,22673.78 -26710.22,22793.37 -26761.28,22975.4 -26814.46,23094.2 -26858.91,23160.88 -27065.02,23360.11 " title="Rio Grande do Sul"/>
  <path id="BR-SC" class="fil1 str0" d="M-25606.23 21272.02l-11.91 0.79 -30.96 -22.49 -19.31 -24.34 -42.07 -16.67 -39.16 21.7 -0.26 25.4 7.41 25.66 -7.14 5.29 -47.63 -30.96 1.06 -37.31 33.87 -44.71 31.22 -5.29 14.02 -34.66 9.79 -41.01 -5.82 -57.94 19.31 -49.21 33.6 -11.11 55.03 -41.8 -23.28 -61.91 -88.64 -9 -55.83 10.58 -177.01 -28.05 -30.69 -14.29 -57.41 -70.38 -12.96 -39.16 -43.13 -58.47 -80.17 -92.34 -41.54 -26.19 -18.79 0.79 -36.25 -41.01 -147.11 -93.66 -47.89 9 -2.38 12.7 -42.33 -5.03 -26.46 -64.56 -65.35 -36.78 -60.06 -24.61 -73.82 4.23 -40.75 -4.76 -68.53 10.85 -50.54 -30.43 -68 9.53 -43.13 -25.93 -81.49 0.79 3.97 -24.61 -35.72 -15.35 -14.82 21.43 -86.25 30.69 -93.13 -10.32 0 0 38.36 -77.52 19.31 -55.3 -15.35 -85.99 10.85 -84.93 -1.06 -67.47 25.4 -46.3 0 0 96.04 0.53 18.79 -10.05 14.02 0.26 28.05 6.35 8.2 13.49 53.71 37.31 70.91 0.79 61.91 -15.35 139.96 44.45 112.71 9.53 26.99 16.67 4.5 10.85 41.54 31.22 99.75 11.11 112.45 -3.44 35.19 50.27 4.76 -13.23 19.58 -10.05 24.34 -0.53 23.02 -22.75 -22.49 -79.11 18.26 -41.8 19.05 -20.64 52.92 -30.16 94.46 10.58 49.48 -25.66 19.31 -23.02 15.61 -39.16 40.48 -17.2 29.37 -3.7 37.57 20.11 21.43 0.79 61.65 -4.5 75.14 -19.31 19.84 0.26 27.52 10.58 82.55 68.79 32.54 16.4 38.1 4.23 88.64 -56.36 35.72 -37.84 41.28 -15.08 3.18 10.32 20.11 1.85 46.04 -6.09 8.73 -11.64 138.64 0.79 0 0 -10.32 34.93 13.49 43.66 -1.85 10.32 -39.69 30.16 -25.93 -12.7 -21.7 -66.94 -0.53 29.63 15.61 71.97 45.24 43.92 14.82 25.14 -26.72 60.59 -4.23 61.38 2.65 11.38 20.11 19.31 6.88 155.05 8.2 14.55 11.38 5.29 20.37 -13.49 9.26 19.05 2.65 23.02 -12.44 1.59 -11.38 -7.41 -31.49 16.67 -9 101.6 15.08 68.53 -15.08 19.84 8.2 51.06 24.08 49.74 -22.75 61.91 -13.76 106.1 -45.24 123.83 -9 -2.65 -9.53 -20.11 5.56 -25.66 -24.34 -31.22 -6.88 8.73 4.76 64.29 30.69 21.96 -24.34 43.92 -43.39 17.2 -109.27 80.43 -74.08 67.73 -99.22 117.48 -27.52 49.74 0.03 0.04zm473.07 -702.47l-3.97 -12.44 6.61 -46.3 20.11 -63.5 -10.58 -31.22 4.23 -26.99 37.04 -20.11 5.82 1.59 17.46 24.87 -14.29 67.73 -21.7 22.75 -15.61 32.28 5.29 30.96 -30.43 20.37 0.02 0.01zm-11.91 -644.79l-49.48 -53.45 67.47 -64.56 6.61 1.06 17.2 27.78 -22.75 34.93 -19.05 54.24z" title="Santa Catarina"/>
  <polygon id="BR-SE" class="fil1 str0" points="-20562.22,13431.88 -20638.95,13455.43 -20679.96,13438.5 -20694.25,13429.5 -20706.95,13410.45 -20757.75,13386.11 -20773.63,13372.35 -20776.81,13361.5 -20767.81,13351.18 -20764.37,13313.61 -20768.34,13303.29 -20806.18,13263.34 -20819.94,13223.92 -20848.78,13206.19 -20874.18,13163.86 -20874.71,13143.49 -20859.1,13101.69 -20850.63,13093.75 -20805.65,13094.01 -20775.75,13113.85 -20708.28,13087.66 -20690.02,13073.11 -20682.08,13057.76 -20702.19,12985 -20700.07,12961.72 -20682.61,12918.86 -20680.49,12836.57 -20700.33,12806.14 -20752.98,12754.55 -20786.58,12688.4 -20792.4,12631.78 -20774.67,12601.35 -20774.67,12601.35 -20603.75,12680.2 -20506.38,12705.34 -20362.98,12786.57 -20328.58,12851.39 -20282.01,12889.75 -20238.09,12910.65 -20225.92,12911.44 -20130.93,12970.44 -20115.05,13005.1 -20115.05,13005.1 -20178.02,13025.21 -20298.93,13103 -20324.59,13126.55 -20365.6,13185.02 -20374.07,13184.49 -20371.16,13155.39 -20398.94,13107.24 -20425.13,13111.47 -20416.13,13142.16 -20383.32,13142.16 -20377.23,13148.51 -20390.99,13200.63 -20424.59,13255.93 -20438.61,13246.67 -20448.4,13228.94 -20474.59,13224.71 -20469.3,13242.7 -20439.4,13259.1 -20446.28,13305.93 -20469.03,13336.36 -20493.64,13390.07 -20514.28,13394.04 -20522.22,13381.87 -20509.52,13344.83 -20498.67,13341.39 -20490.47,13330.01 -20480.68,13302.49 -20502.11,13292.7 -20499.46,13310.69 -20511.37,13340.59 -20524.07,13353.82 -20530.95,13382.66 -20523.54,13401.71 -20530.42,13415.47 " title="Sergipe"/>
  <path id="BR-SP" class="fil1 str0" d="M-24937.37 19417.55l-4.23 -35.19 -37.57 -15.08 -19.31 -87.31 10.58 -51.59 -56.62 -15.35 -20.11 4.5 -29.1 73.29 -17.46 22.49 -28.05 -14.02 -9.26 -20.64 18.26 -87.31 23.55 -17.46 3.7 -10.58 -42.6 -33.6 -42.07 -3.44 -41.8 5.03 -13.23 -10.05 -90.22 14.02 -62.97 3.18 -26.72 -5.56 -15.88 -10.32 -8.73 -53.98 33.87 -56.09 6.61 -27.78 -6.61 -11.64 -15.88 -7.94 -24.34 -52.12 1.59 -23.55 -13.23 -17.99 -17.73 -7.67 -32.01 -30.16 -39.42 -79.64 9.53 -14.55 2.12 -46.57 -34.4 -40.22 -10.05 -48.68 4.5 -21.43 10.32 -15.35 -0.53 -72.5 -23.55 -46.57 -94.99 -74.88 -29.9 -41.01 -78.58 22.75 -140.49 -3.44 -17.46 -14.29 -43.66 -3.7 -11.11 9 -45.51 -1.85 -19.05 -34.93 -16.67 -13.49 -92.87 -21.17 -46.3 -22.23 -20.64 -26.46 -68.26 0.26 -28.31 14.29 -34.93 -3.44 -69.85 -28.84 -66.94 -12.17 -39.16 -20.9 -30.96 -7.67 -19.31 9.79 -9 15.88 -32.01 16.4 -86.78 -7.67 -106.1 2.91 -101.34 -17.2 -85.99 60.59 0 0 22.23 -28.58 19.31 -40.75 33.34 -30.16 200.03 -120.12 51.59 -49.48 33.34 -64.29 45.77 -44.71 10.58 -32.01 38.1 -27.25 7.41 -32.28 -9.26 -22.23 52.92 -59.8 32.01 -61.91 1.85 -24.87 -8.2 -51.06 6.09 -10.32 25.4 -13.76 68.79 -96.31 4.23 -77.52 16.4 -44.45 26.72 -7.94 19.31 -16.93 52.65 -70.91 32.28 -26.99 12.44 -6.09 34.66 -1.06 39.69 -20.64 7.41 -10.58 10.58 -65.09 0 0 32.28 -29.9 56.89 -29.37 50.8 -9.79 37.84 -44.71 39.69 -16.14 19.84 3.7 45.77 41.01 67.47 2.12 113.51 25.4 44.19 -9.53 42.86 5.82 52.92 -15.61 57.68 37.57 44.19 20.9 -3.44 24.34 8.73 37.57 32.01 55.3 16.67 0.79 14.29 -8.47 17.73 -24.87 10.85 -29.9 6.88 -5.03 14.55 1.32 9.53 10.32 6.61 25.4 0.26 73.55 31.75 14.02 10.85 -11.91 -7.14 -67.2 12.96 -31.49 11.91 -12.7 216.43 -17.73 26.72 -33.07 39.69 38.63 29.63 11.38 73.55 -18.26 11.64 -26.19 -5.29 -12.17 8.2 -16.14 62.97 -2.91 43.92 20.64 22.49 -16.93 34.66 -7.67 86.25 88.64 5.29 27.52 -15.08 26.72 -7.67 62.71 15.35 16.14 50.01 32.01 10.58 41.01 -1.59 14.82 -40.22 53.71 -4.76 51.33 20.9 19.58 8.2 16.14 9.79 58.47 34.4 47.63 21.96 52.65 -0.79 22.49 42.6 -1.32 20.64 -8.2 7.41 -9.53 26.46 -1.32 97.9 34.93 6.09 9.79 -1.32 33.6 -18.52 57.68 -49.21 71.97 6.88 77.79 -5.03 91.28 -14.02 41.28 19.05 42.33 47.1 32.81 47.89 21.96 13.49 45.51 -32.01 18.52 53.45 87.58 29.9 6.61 53.18 -6.35 4.76 14.02 95.78 -26.46 14.82 11.11 34.66 -8.47 19.84 -25.93 1.32 -22.23 -6.35 -6.35 4.5 -60.85 31.49 -8.73 2.38 9.26 -9.26 12.96 0.26 12.7 61.91 2.12 63.24 -6.61 47.36 -17.73 32.54 -32.81 51.06 -26.99 58.47 -5.82 32.81 -19.31 0 0 33.6 14.29 14.82 30.96 32.54 42.07 46.83 10.32 83.34 -14.02 44.98 0.26 19.84 43.39 -43.66 56.89 -39.69 18.79 -73.29 9.53 -13.23 -3.97 -62.18 26.72 -28.84 30.43 -28.84 92.6 1.32 10.85 43.13 45.77 12.7 6.88 0 0 -1.59 5.29 -44.71 11.11 -28.05 -21.7 -39.16 29.37 -11.38 17.2 7.14 5.82 -20.11 16.93 -85.2 41.01 -59.53 18.52 -7.41 11.64 1.06 25.4 13.23 41.01 -8.47 11.11 -37.04 6.88 -18.52 -16.93 -35.45 -7.67 -82.55 -13.23 -22.75 3.97 -34.93 9 -45.77 21.7 -13.23 13.49 -32.01 56.89 -34.66 15.08 -13.23 -3.18 15.35 -12.44 -12.7 -32.28 -30.96 -22.49 -21.96 32.54 6.88 19.84 -7.94 16.14 -201.61 112.18 -25.14 21.7 -8.2 30.69 -86.52 79.38 -85.99 51.59 -50.8 14.02 -119.06 84.93 -61.65 51.86 -17.73 2.12 -11.64 16.4 23.81 11.38 17.46 1.59 24.61 -9.53 0 20.11 -16.4 34.66 -34.93 22.49 -28.05 39.16 -0.01 0.01zm1172.37 -608.8l-40.75 -17.2 -30.69 4.76 -12.96 -10.05 2.65 -20.64 25.14 -17.2 28.84 -48.95 19.05 6.61 17.46 17.2 3.44 76.99 -12.17 8.47 -0.01 0.01z" title="São Paulo"/>
  <polygon id="BR-TO" class="fil1 str0" points="-24176.16,13964.49 -24317.98,14002.06 -24364.02,14037.51 -24431.75,14066.61 -24472.76,14066.61 -24592.62,14093.07 -24659.3,14148.1 -24706.4,14171.91 -24718.57,14165.56 -24758.52,14096.24 -24773.07,14095.45 -24786.56,14182.76 -24804.82,14184.88 -24893.46,14166.89 -24976.27,14128 -24961.45,14086.72 -24967.27,14067.14 -25087.13,14081.16 -25160.16,14072.16 -25174.98,14086.45 -25182.92,14112.91 -25202.76,14132.75 -25232.92,14131.43 -25249.06,14049.41 -25278.43,13951.25 -25305.95,13901.51 -25336.38,13866.85 -25367.6,13892.51 -25406.49,13955.75 -25449.62,14112.91 -25466.29,14119 -25573.98,14081.16 -25655.74,14035.92 -25759.72,14025.34 -25817.93,13998.09 -25881.43,13987.51 -25867.67,13925.6 -25835.39,13875.86 -25834.6,13830.62 -25849.42,13838.56 -25897.31,13893.86 -25914.77,13926.4 -25920.06,13976.14 -25929.06,13988.05 -25929.06,13988.05 -25950.23,13987.52 -25975.63,13974.03 -26001.56,13885.66 -25981.98,13812.63 -25993.62,13731.93 -26007.38,13716.58 -26007.64,13675.04 -25995.2,13587.46 -26024.3,13527.93 -26022.98,13514.7 -26001.28,13491.15 -25997.05,13468.13 -26033.83,13432.68 -26035.42,13409.93 -25985.68,13251.44 -25984.62,13173.39 -25970.33,13094.81 -25919,12954.85 -25909.21,12947.71 -25897.83,12925.22 -25886.19,12842.14 -25857.09,12809.07 -25842.27,12759.06 -25825.07,12732.07 -25825.07,12732.07 -25782.21,12634.44 -25752.31,12516.7 -25721.88,12474.9 -25690.39,12445.8 -25658.38,12401.35 -25631.13,12350.55 -25594.88,12326.21 -25567.1,12321.98 -25547.79,12299.49 -25522.92,12258.74 -25518.16,12232.55 -25473.18,12146.82 -25444.34,12125.65 -25397.77,11989.39 -25380.31,11882.5 -25384.28,11874.56 -25403.86,11866.09 -25448.05,11820.05 -25463.93,11794.91 -25468.16,11771.63 -25464.46,11756.55 -25427.15,11711.84 -25393.02,11656.28 -25394.61,11585.64 -25405.99,11527.96 -25400.96,11518.7 -25335.61,11471.6 -25245.39,11441.44 -25179.24,11409.43 -25172.89,11396.2 -25176.86,11356.25 -25154.11,11322.65 -25114.16,11287.2 -25080.03,11283.23 -25075,11247.78 -25082.67,11216.03 -25076.06,11203.86 -25037.43,11191.69 -25020.5,11178.99 -24995.89,11106.23 -25022.88,11070.78 -25025.26,11033.74 -25017.59,11026.33 -24991.93,11024.21 -24972.88,11014.42 -24963.09,10996.96 -24962.3,10980.03 -24995.64,10949.07 -25018.66,10945.37 -25028.98,10937.17 -25055.97,10893.25 -25090.1,10890.07 -25139.58,10896.68 -25200.17,10875.25 -25200.17,10875.25 -25186.15,10858.32 -25116.83,10809.37 -25064.97,10795.35 -25041.95,10796.67 -24968.4,10836.89 -24931.36,10839.01 -24906.22,10825.25 -24860.18,10832.92 -24844.57,10851.18 -24842.45,10878.43 -24835.04,10886.9 -24802.76,10887.69 -24712.8,10925.53 -24690.57,10952.78 -24678.13,11045.38 -24661.2,11085.07 -24666.76,11183.5 -24660.67,11212.08 -24642.94,11241.98 -24643.2,11253.62 -24690.03,11416.34 -24698.23,11479.05 -24690.82,11505.51 -24697.43,11547.58 -24743.73,11601.56 -24790.3,11619.29 -24795.06,11638.08 -24743.73,11673.01 -24732.62,11665.87 -24696.37,11672.22 -24689.76,11681.48 -24686.85,11704.76 -24703.25,11736.25 -24680.76,11774.35 -24657.48,11772.5 -24578.1,11882.57 -24554.02,11905.06 -24493.69,11984.96 -24437.07,11949.51 -24324.09,11924.64 -24276.46,11956.92 -24274.34,12003.22 -24291.27,12089.21 -24280.95,12124.93 -24370.64,12134.19 -24406.09,12148.48 -24421.17,12163.03 -24439.16,12200.87 -24458.47,12271.78 -24448.68,12306.18 -24518.27,12373.65 -24525.15,12392.17 -24519.86,12403.28 -24464.83,12410.95 -24439.96,12429.21 -24420.38,12471.28 -24418.79,12515.2 -24402.39,12542.72 -24299.73,12594.31 -24297.35,12608.33 -24340.74,12656.22 -24337.3,12699.88 -24280.68,12742.74 -24254.49,12818.68 -24219.04,12871.6 -24200.25,12876.36 -24153.15,12870.8 -24126.69,12878.74 -24104.99,12890.38 -24088.85,12912.08 -24054.98,12929.54 -24054.98,12929.54 -23977.19,12935.1 -23977.19,12935.1 -23995.45,12952.3 -24001.27,12978.23 -24016.09,12990.67 -24117.16,13044.12 -24202.09,13113.44 -24207.12,13123.23 -24172.99,13170.86 -24182.52,13181.18 -24209.24,13188.32 -24233.05,13204.46 -24273.27,13296.8 -24299.99,13315.85 -24313.22,13346.54 -24307.13,13370.88 -24257.92,13422.47 -24162.93,13440.2 -24113.45,13466.39 -24112.13,13486.5 -24126.95,13498.41 -24180.93,13519.84 -24192.31,13545.24 -24189.93,13558.47 -24180.67,13567.2 -24153.42,13562.44 -24129.08,13570.11 -24113.73,13583.6 -24106.06,13600.53 -24131.46,13619.32 -24161.89,13630.43 -24213.48,13674.62 -24218.51,13697.11 -24219.83,13774.37 -24210.57,13807.44 -24185.7,13824.9 -24157.92,13831.25 -24147.07,13837.86 -24142.57,13848.97 -24141.25,13877.02 -24177.23,13939.99 " title="Tocantins"/>
 </g>
</svg>
